<svg width="350" height="322" viewBox="0 0 350 322" fill="none" xmlns="http://www.w3.org/2000/svg">
<g opacity="0.2" clip-path="url(#clip0_891_589)">
<path d="M250.886 272.383C175.51 283.264 72.2687 228.998 61.3821 153.321C50.4956 77.6432 114.776 12.3133 190.152 1.43133C265.529 -9.45063 335.462 43.0787 346.358 118.756C357.254 194.433 326.263 261.558 250.886 272.383Z" fill="#80D0C7"/>
<mask id="mask0_891_589" style="mask-type:luminance" maskUnits="userSpaceOnUse" x="0" y="6" width="350" height="316">
<path d="M349.867 6.03229H0.00976562V321.991H349.867V6.03229Z" fill="white"/>
</mask>
<g mask="url(#mask0_891_589)">
<path d="M323.404 225.704C323.404 229.752 265.921 233.074 195.101 233.074C161.288 233.074 117.15 234.314 94.3 233.074C69.1713 231.718 66.7976 227.881 66.7976 225.704C66.7976 221.657 176.597 219.022 247.513 219.022C318.428 219.022 323.404 221.657 323.404 225.704Z" fill="#367C93"/>
<path d="M277.598 221.237C281.945 211.901 284.528 200.179 291.554 192.495C290.83 192.085 290.01 191.77 289.285 191.359C284.319 200.905 279.876 210.765 279.667 221.762C279.667 222.898 281.526 223.108 282.05 222.382C285.002 218.567 287.468 214.399 289.39 209.973L286.902 209.343C285.647 212.914 284.746 216.601 284.214 220.349C284.222 220.598 284.299 220.839 284.436 221.047C284.572 221.255 284.763 221.421 284.987 221.527C285.212 221.634 285.461 221.676 285.708 221.65C285.955 221.624 286.19 221.531 286.387 221.38C290.358 218.66 293.91 215.373 296.931 211.625C297.76 210.594 295.386 209.553 294.662 210.489C291.737 214.098 288.285 217.245 284.424 219.824C285.148 220.139 285.873 220.55 286.597 220.865C287.075 217.109 287.977 213.42 289.285 209.868C289.695 208.618 287.322 208.102 286.797 209.238C284.95 213.513 282.553 217.527 279.667 221.18C280.496 221.38 281.325 221.59 282.05 221.8C282.25 211.214 286.702 201.669 291.459 192.428C292.174 191.083 289.905 190.462 289.18 191.293C282.05 198.929 279.562 210.699 275.224 220.034C274.805 221.466 277.083 222.421 277.598 221.237Z" fill="#367C93"/>
<path d="M104.223 230.888C99.4567 220.826 96.8829 208.369 89.228 200.074C88.6083 199.454 86.2346 199.349 86.9591 200.695C92.126 210.66 96.778 220.931 97.0926 232.195C97.8076 232.09 98.6369 231.88 99.3614 231.775C96.3405 227.841 93.8054 223.556 91.8114 219.013C91.2966 217.877 88.9515 217.972 89.4377 219.433C90.7804 223.138 91.7169 226.979 92.2308 230.888C92.9553 230.687 93.6798 230.477 94.2994 230.267C90.2047 227.509 86.5449 224.153 83.4415 220.311C82.6121 219.356 80.3433 219.996 81.3729 221.266C84.6126 225.247 88.4074 228.742 92.6407 231.642C93.2604 232.062 94.9191 232.167 94.7094 231.021C94.1784 226.954 93.2198 222.955 91.8495 219.089C91.0297 219.194 90.3052 219.404 89.4758 219.509C91.5052 224.226 94.1463 228.655 97.3309 232.682C97.8457 233.408 99.7141 233.513 99.6093 232.272C99.3995 220.75 94.6426 210.317 89.3709 200.208C88.6464 200.408 87.8266 200.618 87.1021 200.828C94.5378 208.923 97.226 221.371 101.783 231.231C102.259 232.348 104.862 232.243 104.223 230.888Z" fill="#367C93"/>
<path d="M16.0346 257.739C14.9002 252.012 15.0813 245.492 12.3167 240.309C12.0022 239.679 10.353 239.479 10.5532 240.405C11.8973 246.132 13.0412 251.716 11.7924 257.529C12.3822 257.512 12.9724 257.547 13.556 257.634C12.5312 255.313 11.801 252.873 11.3825 250.37C11.2777 249.54 9.5236 249.225 9.5236 250.265C9.67615 252.27 9.67615 254.284 9.5236 256.288C10.0384 256.288 10.658 256.183 11.1728 256.183C9.51874 254.247 8.09809 252.123 6.94019 249.855C6.52074 249.024 4.76669 249.225 5.1766 250.16C6.27765 252.621 7.78241 254.879 9.62846 256.842C9.93352 257.253 11.1728 257.568 11.2777 256.737C11.5398 254.601 11.5398 252.44 11.2777 250.303C10.6562 250.321 10.0343 250.286 9.41874 250.198C9.90684 252.833 10.6705 255.408 11.6971 257.883C11.8973 258.503 13.2414 258.837 13.4512 257.978C14.6904 252.069 13.6609 246.256 12.3167 240.443C11.6971 240.443 11.1728 240.548 10.5532 240.548C13.2414 245.531 13.1366 252.174 14.1757 257.673C14.3758 258.598 16.2062 258.799 16.0346 257.739Z" fill="#367C93"/>
<path d="M175.348 40.1004C211.64 42.6968 247.932 39.6804 284.214 40.9309C300.42 41.5513 316.578 43.9377 332.708 42.1718" fill="white"/>
<path d="M175.148 41.4177C201.296 43.3268 227.455 42.2482 253.718 42.0382C267.264 41.9427 280.705 41.9427 294.137 42.8686C307.064 43.6991 319.99 44.8446 333.012 43.5941C335.396 43.3936 334.357 40.7304 332.288 40.9022C318.942 42.2482 305.72 40.9022 292.383 40.0718C279.99 39.2413 267.464 39.2413 255.062 39.3463C228.494 39.5563 201.926 40.6922 175.453 38.8213C173.184 38.5158 172.869 41.2077 175.148 41.4177Z" fill="#367C93"/>
<path d="M334.767 40.1768C323.327 40.1768 310.477 39.6518 302.622 31.3567C297.55 25.9634 295.587 18.3843 291.039 12.571C289.181 10.1846 286.597 8.00821 283.594 7.49275C280.801 6.96774 277.808 8.00821 275.425 9.45914C271.329 11.9004 268.109 15.5756 266.225 19.9593C264.471 23.9016 262.917 29.0944 258.37 29.0944C257.315 29.0748 256.283 28.7892 255.367 28.2639C249.991 25.4003 246.683 19.7493 240.896 17.3629C239.091 16.6047 237.114 16.3539 235.177 16.6374C228.456 17.8879 228.656 25.4575 224.424 29.0944C222.145 31.0608 218.942 31.5858 215.844 31.8912C198.265 33.9722 180.572 35.6236 163.013 36.769C162.76 36.7551 162.512 36.8423 162.323 37.0115C162.135 37.1807 162.021 37.4179 162.007 37.6711C161.993 37.9243 162.08 38.1726 162.249 38.3614C162.418 38.5503 162.655 38.6642 162.908 38.6782C170.207 39.7174 177.566 40.2849 184.938 40.3773" fill="white"/>
<path d="M334.767 38.8213C326.187 38.8213 316.778 38.8213 309.028 34.3635C301.278 29.9058 299 21.4961 294.452 14.4419C290.935 8.94366 285.663 4.68634 278.838 6.55727C272.327 8.3232 267.16 13.8215 264.471 19.7302C263.747 21.2861 263.232 23.6725 262.088 24.923C259.924 27.4144 255.577 26.6889 253.099 24.713C250.096 22.2216 247.512 19.3197 244.205 17.3438C239.762 14.7569 233.718 14.0219 229.839 17.9738C228.075 19.6252 227.15 22.0116 226.025 24.1975C223.242 29.6957 218.685 30.3162 212.899 31.0417C202.46 32.2921 191.926 33.3231 181.364 34.2585C175.644 34.7835 169.686 34.6785 164.1 35.6045C162.546 35.8145 160.067 36.2345 160.582 38.5159C161.202 41.2077 166.893 40.7973 168.647 41.0073C174.128 41.6277 179.61 41.9618 185.091 42.0382C187.36 42.0382 187.16 39.3463 184.881 39.3463C180.02 39.2413 175.167 38.9263 170.41 38.5159C169.457 38.4109 165.644 38.5159 165.234 38.3059C166.893 39.1363 171.545 37.8954 173.404 37.6854C182.603 36.9599 191.707 36.1295 200.906 35.194C207.932 34.4685 217.246 34.879 223.652 31.6621C228.923 28.9703 228.714 22.947 232.956 19.6252C243.442 11.5401 254.662 40.6254 264.595 27.3094C269.038 21.3911 269.867 12.781 277.941 9.98413C289.381 6.03226 293.032 20.2552 297.579 27.6148C305.644 40.6923 320.839 41.7327 334.757 41.7327C337.15 41.5227 336.94 38.8213 334.767 38.8213Z" fill="#367C93"/>
<path d="M21.3062 80.5355C47.9982 82.5115 74.7571 80.2301 101.535 81.1655C113.422 81.576 125.367 83.3419 137.302 82.1201" fill="white"/>
<path d="M21.2011 81.891C40.5338 83.2369 59.8665 82.5114 79.1992 82.3014C89.2278 82.1964 99.2182 82.3014 109.285 82.9219C118.694 83.5519 128.103 84.2774 137.512 83.4469C139.886 83.2369 138.856 80.5832 136.787 80.7455C126.968 81.7001 117.245 80.7455 107.531 80.125C98.5318 79.6 89.5423 79.5046 80.5433 79.6C60.8007 79.705 41.1534 80.5546 21.4394 79.1896C19.2373 79.0846 18.9322 81.786 21.2011 81.891Z" fill="#367C93"/>
<path d="M138.856 80.6405C130.382 80.6405 120.973 80.335 115.186 74.1018C111.459 70.1595 110.01 64.5562 106.702 60.3084C105.253 58.5425 103.499 56.8816 101.22 56.5666C99.087 56.3827 96.9512 56.8915 95.1289 58.0175C92.1447 59.8251 89.7679 62.4843 88.3034 65.6539C87.0641 68.5176 85.9202 72.3931 82.5169 72.3931C81.7481 72.3985 80.9938 72.1832 80.3434 71.7727C76.4159 69.6917 73.9278 65.4917 69.6952 63.7257C68.3485 63.1931 66.8878 63.0156 65.453 63.2103C60.4864 64.1648 60.6866 69.749 57.5979 72.4409C55.9392 73.9013 53.5655 74.2068 51.2872 74.5218C38.3701 76.0777 25.3387 77.3282 12.3167 78.1491C12.1372 78.1491 11.9651 78.2205 11.8381 78.3476C11.7112 78.4747 11.6399 78.6471 11.6399 78.8268C11.6399 79.0066 11.7112 79.179 11.8381 79.3061C11.9651 79.4332 12.1372 79.5046 12.3167 79.5046C17.6848 80.2813 23.099 80.6958 28.5226 80.7455" fill="white"/>
<path d="M138.751 79.2946C128.265 79.2946 118.799 78.2541 113.212 68.2981C110.429 63.3153 107.941 56.2611 101.535 55.2206C95.1286 54.1801 89.2277 59.8884 86.6443 65.1862C86.0247 66.4271 85.5099 68.6035 84.5757 69.644C81.4775 72.7558 77.9599 67.983 76.1009 66.4271C73.9274 64.518 71.7635 62.7903 68.9703 62.0648C62.8693 60.7189 60.6958 64.6612 58.0075 69.224C55.1477 74.1018 48.4746 73.5863 43.4317 74.1018C38.57 74.6268 33.7177 75.1422 28.856 75.5622C23.9942 75.9822 19.1324 76.2877 14.2802 76.6982C12.8312 76.8032 10.3526 76.6982 10.038 78.6741C9.41839 83.1319 25.6529 82.1964 28.6462 82.1964C30.9246 82.3014 30.7149 79.5046 28.4365 79.5046C25.2335 79.3996 22.0304 79.2946 18.8274 78.9796C17.8741 78.8746 14.0609 77.6336 14.4804 79.3996C14.5852 79.705 27.407 78.3591 28.1315 78.3591C36.3011 77.6336 44.671 77.1182 52.8407 75.7627C55.0142 75.3522 57.283 74.9322 59.0466 73.3763C60.8102 71.8204 61.3154 69.6917 62.5547 67.878C68.8655 59.0579 74.8617 72.3454 81.0676 73.6913C85.1953 74.6459 87.4737 71.7154 89.1324 68.2981C91.0962 64.2507 93.5747 59.0579 98.6653 58.0175C104.385 56.8815 107.045 63.9357 109.151 67.773C111.84 72.8608 114.938 77.0132 120.314 79.3996C126.101 81.891 132.707 81.9864 138.923 81.9864C141.134 81.9864 140.925 79.2946 138.751 79.2946Z" fill="#367C93"/>
<path d="M229.523 110.213C232.936 107.931 246.682 114.26 246.482 121.667C246.282 129.075 251.334 227.089 248.751 229.685C246.168 232.282 109.495 234.248 106.492 228.339C105.672 226.678 93.1457 215.93 107.531 202.566C143.613 169.052 229.523 110.213 229.523 110.213Z" fill="#367C93"/>
<path d="M99.3618 113.745C142.164 112.494 185.072 111.358 227.875 110.108C230.143 110.003 232.727 110.003 234.49 111.568C236.454 113.22 236.759 116.131 236.864 118.727C238.418 152.862 239.867 187.102 241.411 221.237C198.714 231.928 144.958 226.22 103.709 226.01C101.43 226.01 98.847 226.325 97.398 224.559C96.6532 223.458 96.2578 222.157 96.2636 220.827C92.5253 187.617 91.8328 154.135 94.1949 120.799" fill="white"/>
<path d="M99.1422 114.88L220.524 111.463C225.901 111.358 234.061 109.382 235.3 116.541C236.025 120.694 235.825 125.257 236.025 129.409C236.444 139.68 236.978 149.96 237.369 160.127C238.322 180.669 239.133 201.115 240.057 221.657C240.477 221.237 240.782 220.703 241.201 220.311C212.04 227.471 181.44 227.156 151.592 226.325C137.217 225.915 122.85 225.285 108.475 225.084C104.137 224.979 99.0754 225.39 97.3119 220.512C95.9677 216.78 96.3586 211.281 95.9677 207.339C95.2432 198.824 94.6236 190.319 94.3185 181.814C93.4963 161.474 93.8146 141.103 95.2718 120.799C95.3767 119.348 92.8981 119.758 92.7933 121.009C91.5222 139.464 91.1441 157.918 91.6589 176.373C91.9639 185.919 92.4882 195.464 93.308 205.01C93.7275 209.783 94.1374 214.555 94.6522 219.223C94.9668 221.715 94.9668 224.721 97.3405 226.277C99.104 227.423 101.583 227.108 103.442 227.108C107.159 227.108 110.887 227.213 114.5 227.318C122.364 227.518 130.219 227.833 138.074 228.043C154.719 228.559 171.258 229.084 187.912 228.664C205.901 228.148 223.89 226.592 241.459 222.335C241.771 222.27 242.054 222.102 242.261 221.858C242.468 221.615 242.588 221.309 242.603 220.989C241.049 186.845 240.324 152.605 238.046 118.47C237.741 114.107 236.702 110.165 231.85 109.334C224.509 108.094 216.025 109.544 208.685 109.755C191.735 110.27 174.671 110.709 157.722 111.205C138.389 111.721 118.952 112.246 99.6188 112.866C98.1222 112.809 97.3977 114.88 99.1422 114.88Z" fill="#367C93"/>
<path d="M94.6046 119.329C108.256 128.149 122.936 135.098 137.503 142.238C144.633 145.665 151.669 149.292 158.475 153.235C163.756 156.251 170.572 163.095 177.188 161.644C182.984 160.298 188.875 155.621 194.042 152.824C199.762 149.712 205.482 146.495 211.001 142.964C221.754 136.014 231.163 127.691 238.399 117.028C239.123 115.988 237.674 114.165 236.74 115.472C229.4 126.259 219.686 134.563 208.723 141.408C203.661 144.624 198.389 147.536 193.118 150.438C190.525 151.889 187.846 153.301 185.253 154.695C181.945 156.451 177.913 159.773 173.985 159.258C170.267 158.733 166.54 155.211 163.337 153.34C160.134 151.469 157.14 149.712 154.033 148.051C147.417 144.414 140.687 141.198 134.014 137.885C120.763 131.49 107.636 125.056 95.3291 117.066C93.8801 116.131 93.5751 118.727 94.6046 119.329Z" fill="#367C93"/>
<path d="M236.244 123.147C236.244 123.147 193.756 156.184 187.798 160.537C181.84 164.89 173.737 160.432 173.737 160.432C173.737 160.432 194.414 152.347 199.686 148.023C204.957 143.699 234.509 120.178 234.509 120.178L236.244 123.147Z" fill="#367C93"/>
<path d="M317.503 250.914L264.881 252.47C264.446 252.485 264.024 252.623 263.664 252.868C263.305 253.113 263.022 253.456 262.849 253.856C262.676 254.256 262.62 254.697 262.688 255.128C262.756 255.559 262.945 255.961 263.232 256.288L283.251 279.198C283.495 279.476 283.798 279.695 284.138 279.839C284.478 279.983 284.846 280.048 285.215 280.028L344.138 273.537C344.613 273.489 345.063 273.298 345.427 272.989C345.791 272.679 346.053 272.266 346.177 271.804C346.301 271.342 346.282 270.853 346.122 270.402C345.962 269.951 345.669 269.56 345.282 269.28C337.322 263.677 325.015 257.042 319.543 252.165" fill="white"/>
<path d="M317.713 249.979L278.533 251.229C274.29 251.334 269.228 250.714 264.986 251.64C258.37 252.995 263.432 258.493 265.816 261.09C270.773 266.817 275.844 272.497 280.801 278.272C283.385 281.279 285.044 281.078 288.761 280.658C304.166 278.997 319.572 277.231 334.977 275.57C337.837 275.265 345.11 275.885 346.664 272.564C348.733 268.211 340.868 265.299 338.18 263.638C332.088 259.82 325.568 256.174 320.067 251.506C319.248 250.876 318.008 252.461 318.828 253.157C322.815 256.368 327.031 259.284 331.44 261.882C333.718 263.333 335.997 264.679 338.266 266.13C339.61 266.96 346.95 270.387 344.262 272.812C343.747 273.222 341.888 273.127 341.268 273.127L333.204 274.081C319.448 275.637 305.558 277.098 291.85 278.654C288.847 278.959 285.749 280.105 283.366 278.024C278.819 274.081 275.101 268.478 271.068 264.02C269.619 262.359 261.659 255.716 265.072 253.644C266.025 253.129 268.79 253.539 269.839 253.539L279.553 253.224C292.165 252.814 304.777 252.499 317.293 252.088C318.227 251.745 318.952 249.883 317.713 249.979Z" fill="#367C93"/>
<path d="M264.061 254.446C273.461 258.493 283.804 257.873 293.422 260.88C297.655 262.226 301.583 265.653 306.139 263.992C310.696 262.331 315.129 257.768 319.056 254.857C319.886 254.236 319.161 252.365 318.332 252.947C314.614 255.744 310.991 259.171 306.892 261.348C302.126 263.944 296.664 259.582 291.907 258.341C282.812 255.849 273.298 256.269 264.509 252.527C263.432 252.06 263.108 254.026 264.061 254.446Z" fill="#367C93"/>
<path d="M278.732 277.375L284.014 283.503C284.528 284.018 287.322 284.228 288.141 284.123L346.559 276.83C349.419 276.62 351.106 272.268 349.142 270.082C348.828 269.776 347.798 268.115 347.484 268.115C345.625 268.115 317.503 249.024 317.503 249.024L340.563 266.454C340.962 266.766 341.264 267.187 341.43 267.666C341.597 268.145 341.622 268.662 341.502 269.155C341.382 269.648 341.123 270.096 340.755 270.445C340.387 270.794 339.926 271.029 339.428 271.122L286.797 279.694L278.732 277.375Z" fill="#367C93"/>
<path d="M54.3854 248.948L114.872 250.809L90.7819 278.415C90.4241 278.812 89.9804 279.121 89.4846 279.32C88.9889 279.518 88.4544 279.601 87.9221 279.561L27.1308 274.578C26.7671 274.532 26.4243 274.383 26.1432 274.147C25.8622 273.911 25.655 273.6 25.5464 273.249C25.4377 272.899 25.4323 272.524 25.5307 272.171C25.6291 271.817 25.8272 271.5 26.1013 271.256C33.9564 264.822 46.3682 255.792 52.4597 250.256" fill="white"/>
<path d="M54.3855 249.979L114.872 251.888C114.662 251.267 114.452 250.647 114.252 250.122C108.98 256.145 103.766 262.159 98.5323 268.182C95.9489 271.046 93.5752 274.406 90.7821 277.002C88.8755 278.768 87.579 278.663 85.3007 278.453C67.1882 277.002 49.2187 275.446 31.1253 273.995C30.4008 273.89 28.2654 274.196 27.6172 273.68C25.5485 272.124 30.0957 269.318 31.5447 268.287C38.6753 262.684 46.0156 257.386 52.8412 251.372C53.5657 250.752 52.8412 248.776 52.0118 249.463C45.396 255.277 38.2654 260.46 31.335 265.863C29.2664 267.524 20.477 273.127 26.8927 275.609C28.6467 276.239 31.1253 276.029 32.8889 276.134L47.8746 277.375L81.3731 280.181C83.4937 280.504 85.6344 280.676 87.7792 280.696C90.9918 280.486 92.4313 277.9 94.4522 275.714C101.373 267.724 108.408 259.734 115.329 251.745C115.749 251.229 115.539 249.979 114.71 249.979L54.233 248.117C53.2511 247.907 53.3846 249.979 54.3855 249.979Z" fill="#367C93"/>
<path d="M110.01 250.714C100.601 254.761 90.1622 254.236 80.4578 257.042C76.1108 258.283 71.3538 262.016 66.9115 260.46C62.1451 258.799 57.6074 254.131 53.5655 251.124C52.7361 250.504 51.9067 252.365 52.7361 253.033C56.8734 256.145 61.4206 260.813 66.2823 262.684C70.4196 264.24 73.5178 261.643 77.3405 260.193C87.9887 256.04 99.8762 257.186 110.429 252.613C111.249 252.27 111.049 250.294 110.01 250.714Z" fill="#367C93"/>
<path d="M116.006 249.253C117.56 249.883 117.045 253.931 116.006 255.277L94.8144 282.004C93.8611 283.255 90.1623 284.19 88.7133 284.085L28.8563 279.828C27.8071 279.76 26.8024 279.378 25.9728 278.731C25.1433 278.084 24.5271 277.202 24.2043 276.2L23.251 273.184L90.7629 278.482L115.348 249.148L116.006 249.253Z" fill="#367C93"/>
<path d="M188.275 202.041C178.866 193.221 158.294 192.915 149.61 202.871C148.656 204.017 149.819 205.678 150.954 204.332C158.809 195.407 178.246 196.132 186.626 204.017C187.655 204.952 189.209 202.871 188.275 202.041Z" fill="#367C93"/>
<path d="M148.713 179.733L148.408 180.048C148.174 180.281 147.997 180.565 147.893 180.878C147.761 181.136 147.69 181.42 147.683 181.709C147.662 181.838 147.67 181.97 147.706 182.095C147.743 182.221 147.807 182.337 147.893 182.434C147.995 182.691 148.175 182.908 148.408 183.055C148.608 183.16 148.713 183.16 148.923 183.265C149.294 183.37 149.686 183.37 150.057 183.265C150.267 183.16 150.477 183.16 150.677 183.055C151.12 182.876 151.513 182.591 151.821 182.224L152.126 181.919C152.358 181.684 152.534 181.4 152.641 181.088C152.771 180.83 152.842 180.547 152.85 180.258C152.873 180.129 152.866 179.997 152.829 179.871C152.793 179.745 152.728 179.629 152.641 179.532C152.54 179.273 152.36 179.052 152.126 178.902C151.926 178.797 151.821 178.797 151.611 178.702C151.24 178.597 150.847 178.597 150.477 178.702C150.267 178.797 150.057 178.797 149.857 178.902C149.421 179.095 149.031 179.378 148.713 179.733Z" fill="#367C93"/>
<path d="M186.206 179.733L185.892 180.048C185.664 180.286 185.489 180.569 185.377 180.878C185.248 181.136 185.18 181.42 185.177 181.709C185.159 181.837 185.168 181.967 185.202 182.092C185.237 182.217 185.296 182.333 185.377 182.434C185.485 182.687 185.664 182.902 185.892 183.055C186.101 183.16 186.206 183.16 186.416 183.265C186.787 183.37 187.18 183.37 187.55 183.265C187.76 183.16 187.96 183.16 188.17 183.055C188.611 182.877 189.001 182.591 189.304 182.224L189.619 181.919C189.848 181.682 190.023 181.399 190.134 181.088C190.264 180.83 190.335 180.547 190.344 180.258C190.366 180.129 190.359 179.997 190.323 179.871C190.286 179.745 190.222 179.629 190.134 179.532C190.027 179.277 189.848 179.058 189.619 178.902C189.409 178.797 189.304 178.797 189.104 178.702C188.73 178.597 188.334 178.597 187.96 178.702C187.76 178.797 187.55 178.797 187.341 178.902C186.925 179.124 186.543 179.404 186.206 179.733Z" fill="#367C93"/>
<path d="M157.293 280.076C157.703 279.761 157.913 279.561 157.913 279.561L199.371 282.768C199.661 282.79 199.94 282.89 200.178 283.059C200.415 283.227 200.602 283.457 200.719 283.724C200.835 283.991 200.877 284.285 200.84 284.574C200.802 284.863 200.687 285.136 200.506 285.364L175.072 318.048L123.07 314.936C122.719 314.893 122.386 314.753 122.11 314.532C121.833 314.31 121.624 314.016 121.505 313.682C121.387 313.348 121.363 312.988 121.437 312.641C121.512 312.294 121.681 311.975 121.926 311.72L138.475 296.991C142.917 292.943 147.36 288.896 151.916 284.954C152.736 284.228 155.634 280.696 156.769 280.801C159.457 281.011 163.699 292.256 165.043 294.709C165.873 296.265 166.692 298.127 166.178 299.788C165.453 301.764 163.184 302.489 161.116 303.005C147.16 306.431 136.816 310.059 122.86 313.505" fill="white"/>
<path d="M158.085 280.591C158.085 280.591 158.189 280.486 159.124 280.486C160.363 280.486 161.707 280.696 162.937 280.801L174.929 281.756C179.371 282.061 183.823 282.481 188.275 282.787C191.135 282.997 194.891 282.691 197.684 283.522C199.962 284.247 199.438 284.658 198.304 286.529C196.55 289.326 194.062 291.922 192.098 294.518L176.597 314.44C175.968 315.27 175.253 316.101 174.624 316.931C174.004 317.972 174.624 317.237 174.834 317.237C173.08 317.552 170.601 317.036 168.733 316.826L143.404 315.27C139.267 315.06 135.234 314.755 131.106 314.545C129.2 314.44 125.52 314.956 123.766 314.125C121.078 312.884 124.281 310.708 125.73 309.457C129.038 306.594 132.346 303.549 135.549 300.637C139.267 297.315 142.889 293.955 146.607 290.681C148.571 288.915 150.744 287.149 152.603 285.383C153.283 284.516 154.046 283.716 154.881 282.997C158.085 281.136 159.648 285.803 160.773 288.295C161.602 290.051 163.566 292.962 163.881 295.034C163.976 296.284 161.812 301.573 161.021 302.088C160.229 302.604 158.437 302.718 157.503 303.043C155.024 303.663 152.546 304.398 150.058 305.019C140.754 307.605 131.554 310.412 122.146 312.798C120.801 313.113 122.041 314.459 123.099 314.249C133.328 311.653 143.461 308.522 153.699 305.744C158.656 304.398 169 303.835 166.626 296.303C165.282 292.046 162.279 284.572 159 281.565C156.207 278.969 154.348 281.155 151.974 283.474C143.49 291.874 134.081 299.558 125.091 307.548C123.642 308.894 119.2 311.49 120.229 314.077C121.059 316.053 123.432 315.843 125.196 315.986C134.91 316.607 144.634 317.132 154.348 317.752C159.209 318.067 163.966 318.373 168.819 318.583C170.477 318.688 173.27 319.413 174.92 318.888C176.569 318.363 177.713 316.025 178.733 314.64C181.84 310.698 184.939 306.651 188.037 302.709C191.135 298.766 194.348 294.509 197.57 290.462C198.609 289.116 201.602 286.519 201.602 284.543C201.602 281.746 198.085 282.061 196.226 281.851L180.515 280.601C174.796 280.191 169.076 279.646 163.356 279.255C161.183 279.045 158.075 278.11 156.321 279.675C155.501 280.381 157.36 281.212 158.085 280.591Z" fill="#367C93"/>
<path d="M122.975 315.309L177.407 321.895C177.82 321.926 178.234 321.855 178.613 321.688C178.991 321.522 179.324 321.265 179.581 320.941C183.299 316.168 198.809 296.447 204.7 287.216C204.982 286.799 205.146 286.313 205.174 285.81C205.203 285.307 205.095 284.805 204.863 284.358C204.631 283.911 204.282 283.536 203.854 283.271C203.426 283.006 202.934 282.862 202.431 282.854L175.882 317.218L122.975 315.309Z" fill="#367C93"/>
<path d="M22.6502 257.873C22.5454 258.904 18.9324 259.534 14.5854 259.219C12.5168 259.114 9.72364 259.219 8.37951 258.799C7.90098 258.728 7.46992 258.47 7.18054 258.082C6.89115 257.694 6.76699 257.207 6.83518 256.728C6.94004 255.687 13.7561 255.487 18.1031 255.773C22.45 256.059 22.7551 256.728 22.6502 257.873Z" fill="#367C93"/>
<path d="M225.291 275.609C225.291 276.029 223.842 276.239 222.079 276.134C221.249 276.125 220.42 276.054 219.6 275.924C219.413 275.887 219.245 275.781 219.131 275.628C219.016 275.474 218.963 275.284 218.981 275.093C218.981 274.683 221.669 274.683 223.423 274.778C225.177 274.874 225.291 275.198 225.291 275.609Z" fill="#367C93"/>
<path d="M220.839 275.408C220.592 275.494 220.326 275.511 220.071 275.455C219.815 275.399 219.58 275.274 219.39 275.093C219.185 274.786 219.078 274.423 219.085 274.053C219.048 273.72 219.121 273.384 219.295 273.098C219.46 272.839 219.689 272.626 219.959 272.481C220.229 272.335 220.533 272.262 220.839 272.268C221.527 272.253 222.198 272.472 222.746 272.888C223.011 273.093 223.217 273.364 223.345 273.674C223.472 273.984 223.515 274.322 223.47 274.654C223.442 274.806 223.373 274.948 223.27 275.064C223.229 275.105 223.179 275.135 223.125 275.153C223.071 275.171 223.013 275.177 222.956 275.169C222.585 275.261 222.203 275.297 221.821 275.274" fill="white"/>
<path d="M220.839 274.683C220.324 274.683 219.705 274.778 219.705 274.053C219.705 273.327 220.324 273.222 220.839 273.222C221.355 273.199 221.864 273.347 222.288 273.642C222.498 273.747 222.908 274.158 222.803 274.473C222.698 274.788 222.183 274.683 221.85 274.683C221.02 274.578 221.02 276.134 221.745 276.239C222.072 276.342 222.42 276.358 222.754 276.284C223.089 276.21 223.398 276.05 223.651 275.819C223.832 275.548 223.945 275.237 223.982 274.913C224.018 274.59 223.977 274.262 223.861 273.957C223.652 273.304 223.235 272.736 222.674 272.342C222.113 271.947 221.439 271.747 220.753 271.771C220.442 271.774 220.134 271.843 219.851 271.974C219.568 272.104 219.316 272.294 219.111 272.529C218.907 272.765 218.754 273.041 218.665 273.34C218.575 273.639 218.549 273.953 218.589 274.263C218.559 274.58 218.607 274.9 218.728 275.195C218.848 275.489 219.039 275.75 219.283 275.955C219.527 276.16 219.817 276.302 220.128 276.37C220.439 276.438 220.761 276.429 221.068 276.344C221.773 276.134 221.564 274.578 220.839 274.683Z" fill="#367C93"/>
<path d="M221.774 273.127C221.872 273.435 221.907 273.759 221.879 274.081C221.774 274.291 221.669 274.912 221.879 274.912C222.325 274.965 222.776 274.965 223.223 274.912C223.196 274.457 223.126 274.007 223.013 273.566C222.618 273.372 222.202 273.225 221.774 273.127Z" fill="#367C93"/>
<path d="M6.83584 260.46C6.83584 260.88 5.38684 261.09 3.62326 260.985C2.79306 260.976 1.96464 260.905 1.14471 260.775C0.957051 260.738 0.789785 260.632 0.675311 260.479C0.560836 260.325 0.507299 260.135 0.525071 259.944C0.525071 259.534 3.21334 259.534 4.9674 259.629C6.72145 259.725 6.83584 260.049 6.83584 260.46Z" fill="#367C93"/>
<path d="M2.38364 260.364C2.13894 260.445 1.8772 260.458 1.62569 260.402C1.37418 260.347 1.14212 260.225 0.953705 260.049C0.740994 259.745 0.630794 259.38 0.63912 259.009C0.604128 258.676 0.677713 258.341 0.848843 258.054C1.01502 257.796 1.24389 257.585 1.51399 257.44C1.7841 257.294 2.0866 257.22 2.39317 257.224C3.0808 257.217 3.75134 257.438 4.29975 257.854C4.55478 258.071 4.75061 258.35 4.86897 258.664C4.98732 258.978 5.02435 259.316 4.97658 259.648C4.95067 259.806 4.87755 259.953 4.76686 260.068C4.7257 260.108 4.67603 260.139 4.62156 260.157C4.56709 260.175 4.50922 260.181 4.45228 260.173C4.08008 260.256 3.69891 260.291 3.31786 260.278" fill="white"/>
<path d="M2.28823 259.534C1.76392 259.534 1.14429 259.629 1.14429 258.904C1.14429 258.178 1.76392 258.073 2.28823 258.073C2.8012 258.05 3.30733 258.198 3.7277 258.493C3.93742 258.598 4.34734 259.009 4.25201 259.324C4.15668 259.639 3.62284 259.534 3.29872 259.534C2.46936 259.429 2.46936 260.985 3.19386 261.09C3.52103 261.189 3.86801 261.202 4.20174 261.128C4.53547 261.055 4.84486 260.897 5.10044 260.67C5.29218 260.395 5.41186 260.076 5.4485 259.742C5.48514 259.408 5.43758 259.071 5.31016 258.761C5.10089 258.11 4.68505 257.545 4.12584 257.152C3.56663 256.759 2.89463 256.56 2.21197 256.584C1.89258 256.579 1.57595 256.644 1.28405 256.774C0.992147 256.904 0.731967 257.096 0.521556 257.337C0.311145 257.577 0.15554 257.861 0.065537 258.168C-0.0244662 258.475 -0.0467129 258.798 0.000340022 259.114C-0.0428618 259.434 -0.00426677 259.76 0.112513 260.061C0.229294 260.362 0.420441 260.628 0.668069 260.835C0.915697 261.042 1.21171 261.183 1.52841 261.244C1.84511 261.305 2.17213 261.285 2.47889 261.185C3.21292 261.09 3.10806 259.534 2.28823 259.534Z" fill="#367C93"/>
<path d="M3.31749 257.968C3.31749 257.968 3.52722 258.703 3.42235 258.923C3.31749 259.142 3.21263 259.753 3.42235 259.753C3.86884 259.806 4.32 259.806 4.76649 259.753C4.74011 259.299 4.66987 258.848 4.55677 258.408C4.1554 258.23 3.74111 258.083 3.31749 257.968Z" fill="#367C93"/>
<path d="M268.914 295.015C268.914 295.635 266.75 295.969 264.262 295.74C263.05 295.757 261.84 295.654 260.649 295.435C259.696 295.12 259.696 294.604 259.696 294.289C259.696 293.669 263.728 293.564 266.311 293.774C268.895 293.984 268.914 294.394 268.914 295.015Z" fill="#367C93"/>
<path d="M262.403 294.805C262.033 294.903 261.646 294.917 261.27 294.846C260.893 294.775 260.538 294.621 260.229 294.394C259.911 293.976 259.731 293.469 259.714 292.943C259.681 292.481 259.753 292.018 259.924 291.588C260.179 291.217 260.516 290.912 260.911 290.696C261.305 290.48 261.744 290.361 262.193 290.347C263.172 290.346 264.122 290.683 264.881 291.301C265.245 291.623 265.529 292.025 265.71 292.476C265.89 292.927 265.962 293.414 265.92 293.898C265.897 294.137 265.785 294.359 265.606 294.518C265.501 294.623 265.406 294.623 265.196 294.728C264.654 294.863 264.091 294.895 263.537 294.824" fill="white"/>
<path d="M262.298 294.079C261.268 294.184 260.229 294.079 260.334 292.733C260.334 291.693 261.287 291.282 262.24 291.177C262.642 291.119 263.052 291.144 263.444 291.251C263.836 291.358 264.202 291.544 264.519 291.798C264.929 292.113 265.548 292.752 265.472 293.249C265.367 294.079 264.328 293.974 263.813 293.974C262.984 293.879 262.984 295.435 263.709 295.54C264.433 295.645 265.672 295.74 266.292 295.015C266.522 294.667 266.67 294.272 266.725 293.858C266.78 293.444 266.739 293.024 266.607 292.628C266.323 291.744 265.75 290.981 264.98 290.461C264.211 289.942 263.29 289.697 262.364 289.765C261.938 289.764 261.516 289.85 261.124 290.017C260.732 290.184 260.377 290.429 260.081 290.736C259.786 291.044 259.555 291.408 259.404 291.807C259.252 292.206 259.183 292.631 259.199 293.058C259.199 295.129 260.544 295.922 262.507 295.855C263.232 295.54 263.022 294.012 262.298 294.079Z" fill="#367C93"/>
<path d="M263.642 291.387C263.642 291.387 264.061 292.418 263.852 292.838C263.642 293.258 263.537 293.974 263.852 294.079C264.505 294.133 265.162 294.133 265.815 294.079C265.746 293.384 265.641 292.692 265.501 292.008C265.501 291.798 263.642 291.387 263.642 291.387Z" fill="#367C93"/>
</g>
</g>
<defs>
<clipPath id="clip0_891_589">
<rect width="350" height="322" fill="white"/>
</clipPath>
</defs>
</svg>
