<svg width="500" height="500" viewBox="0 0 500 500" fill="none" xmlns="http://www.w3.org/2000/svg">
<path d="M110.044 426.008C190.102 464.165 319.901 464.165 399.958 426.008C480.015 387.852 480.015 325.987 399.957 287.83C319.9 249.673 190.101 249.673 110.043 287.83C29.985 325.986 29.986 387.851 110.044 426.008Z" fill="#EBEBEB"/>
<path d="M368.08 142.3L371.755 139.47V131.374C371.755 124.956 376.873 117.507 382.432 114.298C387.989 111.089 392.495 113.69 392.495 120.108V121.284C393.756 119.325 395.384 117.639 397.164 116.611C401.164 114.302 404.406 116.174 404.406 120.792V121.327L411.766 117.077C414.4 115.557 416.535 116.789 416.535 119.83C416.535 122.871 414.4 126.569 411.766 128.09L368.079 153.313C365.445 154.834 363.31 153.601 363.31 150.56C363.311 147.518 365.446 143.82 368.08 142.3Z" fill="#EBEBEB"/>
<path d="M104.087 362.443C103.572 362.347 103.017 362.187 102.398 362.025C100.311 361.477 98.249 360.835 96.232 360.07C92.217 358.55 88.367 356.551 84.943 353.949C83.095 352.545 81.352 350.941 80.159 348.951C78.966 346.962 78.366 344.537 78.909 342.28C79.452 340.025 81.279 338.026 83.568 337.651C84.642 337.475 85.75 337.646 86.823 337.464C87.895 337.282 89.018 336.573 89.127 335.49C89.187 334.882 88.917 334.297 88.649 333.748C86.869 330.111 84.891 326.543 83.679 322.679C82.533 319.028 82.443 315.864 83.474 312.158C84.415 308.776 86.172 305.59 88.858 303.285C90.054 302.258 91.723 301.434 93.169 302.064C94.114 302.476 94.725 303.433 95.006 304.426C95.286 305.418 95.289 306.463 95.351 307.492C95.485 309.703 95.906 311.896 96.599 314C97.019 315.274 97.603 316.595 98.74 317.305C100.6 318.469 103.159 317.558 105.145 318.494C106.995 319.368 107.797 321.599 107.894 323.643C107.989 325.686 107.566 327.74 107.801 329.772C107.874 330.405 108.02 331.052 108.393 331.568C108.865 332.223 109.633 332.583 110.284 333.058C112.213 334.466 113.125 336.95 113.181 339.337C113.237 341.725 112.552 344.062 111.831 346.338C110.814 349.551 110.349 352.633 109.846 355.921C109.575 357.692 108.62 359.977 107.4 361.328C106.289 362.556 105.295 362.671 104.087 362.443Z" fill="#80D0C7"/>
<path d="M107.413 360.778C107.295 360.778 107.181 360.718 107.116 360.609C95.453 340.928 91.755 327.065 90.706 318.901C89.563 310.002 91.183 305.828 91.253 305.655C91.324 305.478 91.524 305.393 91.701 305.464C91.877 305.535 91.963 305.735 91.892 305.912C91.866 305.978 90.265 310.172 91.4 318.897C92.452 326.985 96.135 340.727 107.709 360.258C107.806 360.422 107.752 360.633 107.588 360.73C107.534 360.763 107.473 360.778 107.413 360.778Z" fill="white"/>
<path d="M101.174 349.366C101.161 349.366 101.149 349.365 101.136 349.364C86.9199 347.797 82.8959 343.128 82.7319 342.931C82.6109 342.785 82.6309 342.568 82.7769 342.446C82.9229 342.325 83.1399 342.345 83.2609 342.49C83.2999 342.537 87.3219 347.149 101.211 348.68C101.4 348.701 101.536 348.871 101.516 349.06C101.496 349.235 101.347 349.366 101.174 349.366Z" fill="white"/>
<path d="M97.1619 340.509C97.0889 340.509 97.0159 340.486 96.9539 340.439C96.8029 340.324 96.7729 340.108 96.8889 339.957C101.401 334.031 101.694 324.309 101.696 324.212C101.701 324.022 101.85 323.872 102.049 323.876C102.239 323.881 102.389 324.039 102.384 324.229C102.374 324.636 102.082 334.273 97.4359 340.374C97.3679 340.462 97.2659 340.509 97.1619 340.509Z" fill="white"/>
<path d="M388.599 301.661C389.976 292.361 389.995 281.012 383.165 264.433C376.335 247.854 378.462 239.158 385.783 236.794C393.103 234.431 409.322 247.012 408.717 268.176C408.134 288.616 394.319 305.498 394.319 305.498L388.599 301.661Z" fill="#80D0C7"/>
<path opacity="0.1" d="M388.599 301.661C389.976 292.361 389.995 281.012 383.165 264.433C376.335 247.854 378.462 239.158 385.783 236.794C393.103 234.431 409.322 247.012 408.717 268.176C408.134 288.616 394.319 305.498 394.319 305.498L388.599 301.661Z" fill="black"/>
<path d="M392.173 304.402C392.127 304.402 392.081 304.393 392.036 304.374C391.861 304.298 391.781 304.096 391.857 303.921C391.933 303.746 399.405 286.285 398.861 270.42C398.235 252.167 388.129 242.129 388.027 242.029C387.891 241.896 387.888 241.678 388.02 241.542C388.153 241.405 388.371 241.403 388.507 241.535C388.611 241.636 398.914 251.852 399.55 270.396C400.099 286.418 392.566 304.018 392.49 304.194C392.434 304.324 392.307 304.402 392.173 304.402Z" fill="white"/>
<path d="M389.006 309.914C389.006 309.914 392.866 287.425 406.567 274.506C420.268 261.588 443.112 259.131 450.265 266.034C457.419 272.937 452.84 279.642 442.753 281.966C431.345 284.595 424.356 289.203 431.345 292.715C437.844 295.981 437.111 303.044 430.34 306.439C419.54 311.855 400.043 306.699 395.292 317.354L389.006 309.914Z" fill="#80D0C7"/>
<path d="M391.905 314.67C391.866 314.67 391.825 314.663 391.786 314.649C391.608 314.583 391.516 314.385 391.582 314.207C394.942 305.082 399.759 297.087 405.898 290.445C410.811 285.13 416.575 280.666 423.032 277.175C434.028 271.231 443.36 270.161 443.453 270.151C443.639 270.132 443.812 270.267 443.832 270.456C443.853 270.645 443.716 270.815 443.527 270.835C443.435 270.845 434.214 271.905 423.333 277.794C413.3 283.223 399.76 293.989 392.227 314.444C392.176 314.584 392.045 314.67 391.905 314.67Z" fill="white"/>
<path d="M398.847 300.532C398.705 300.532 398.571 300.443 398.522 300.301C398.459 300.121 398.554 299.925 398.733 299.862C410.421 295.776 427.184 297.917 427.351 297.939C427.54 297.964 427.672 298.137 427.648 298.325C427.623 298.514 427.45 298.646 427.262 298.622C427.095 298.6 410.491 296.481 398.961 300.512C398.923 300.526 398.885 300.532 398.847 300.532Z" fill="white"/>
<path d="M118.446 70.004C118.446 67.163 116.452 63.709 113.992 62.289L110.365 60.195C107.905 58.774 103.916 58.774 101.456 60.195L72.757 76.765C71.481 77.502 70.333 78.788 69.521 80.25C68.866 81.43 68.428 82.724 68.326 83.941C68.311 84.123 68.303 84.303 68.303 84.48V117.619C68.303 120.46 70.298 123.914 72.757 125.334L76.384 127.428C76.531 127.513 76.683 127.592 76.84 127.666C76.896 127.693 76.956 127.716 77.014 127.742C77.115 127.787 77.216 127.832 77.321 127.872C77.398 127.902 77.477 127.929 77.556 127.956C77.644 127.987 77.731 128.018 77.821 128.046C77.915 128.076 78.011 128.103 78.107 128.129C78.181 128.149 78.255 128.17 78.33 128.189C78.444 128.217 78.558 128.243 78.674 128.268C78.729 128.279 78.784 128.291 78.84 128.301C78.978 128.328 79.116 128.351 79.256 128.372C79.282 128.376 79.308 128.379 79.334 128.383C81.403 128.676 83.678 128.36 85.294 127.427L113.993 110.857C116.453 109.437 118.448 105.983 118.448 103.142L118.446 70.004Z" fill="#80D0C7"/>
<path opacity="0.4" d="M82.1419 87.327C81.6379 88.199 81.2549 89.141 81.0379 90.072C81.6019 87.653 83.2939 85.156 85.2919 84.002L113.991 67.432C116.451 66.012 118.445 67.163 118.445 70.004C118.445 67.163 116.451 63.709 113.991 62.289L110.364 60.195C107.904 58.774 103.915 58.774 101.455 60.195L72.7559 76.765C71.4799 77.502 70.3319 78.788 69.5199 80.25C69.5499 80.197 69.5759 80.143 69.6069 80.09L82.1419 87.327Z" fill="white"/>
<path opacity="0.1" d="M84.3689 127.85C84.297 127.874 84.2279 127.89 84.1569 127.909C84.1499 127.911 84.1419 127.913 84.1349 127.915C84.0159 127.947 83.8989 127.972 83.7839 127.991C83.7749 127.993 83.7649 127.994 83.7559 127.995C83.6419 128.012 83.5299 128.024 83.4209 128.028C83.4129 128.028 83.405 128.028 83.3969 128.029C83.2859 128.033 83.1769 128.031 83.0709 128.021H83.0679C82.6389 127.982 82.2549 127.837 81.9319 127.594C81.9199 127.585 81.9069 127.577 81.8939 127.568C81.8369 127.523 81.7839 127.472 81.7309 127.421C81.7019 127.393 81.6709 127.366 81.6429 127.336C81.5989 127.289 81.5579 127.237 81.5169 127.185C81.4849 127.144 81.4529 127.103 81.4219 127.06C81.3869 127.009 81.3539 126.956 81.3219 126.902C81.2909 126.85 81.2609 126.796 81.2329 126.74C81.2059 126.686 81.1799 126.631 81.1549 126.574C81.1269 126.51 81.1019 126.444 81.0779 126.376C81.0579 126.319 81.0379 126.263 81.0199 126.204C80.9969 126.127 80.9779 126.047 80.9589 125.966C80.9459 125.909 80.9309 125.853 80.9199 125.793C80.9019 125.698 80.8899 125.598 80.8779 125.498C80.8719 125.446 80.8629 125.396 80.8579 125.343C80.8439 125.186 80.8359 125.025 80.8359 124.856V91.717C80.8359 91.368 80.867 91.01 80.924 90.647C80.925 90.641 80.9249 90.635 80.9259 90.628C80.9469 90.495 80.9769 90.361 81.0049 90.227C81.0159 90.175 81.0239 90.124 81.0359 90.072C81.2529 89.141 81.6369 88.2 82.1399 87.327L69.6039 80.089C69.5739 80.142 69.5469 80.196 69.5169 80.249C68.8619 81.429 68.4239 82.723 68.3219 83.94C68.3069 84.122 68.299 84.302 68.299 84.479V117.618C68.299 120.459 70.2939 123.913 72.7529 125.333L76.3799 127.427C76.5269 127.512 76.6789 127.591 76.8359 127.665C76.8919 127.692 76.9519 127.715 77.0099 127.741C77.1109 127.786 77.2129 127.831 77.3169 127.871C77.3939 127.901 77.4729 127.928 77.5519 127.955C77.6399 127.986 77.7269 128.017 77.8169 128.045C77.9109 128.075 78.0069 128.102 78.1029 128.128C78.1769 128.149 78.2509 128.169 78.3259 128.188C78.4399 128.216 78.5539 128.242 78.6699 128.267C78.7249 128.279 78.7799 128.29 78.8359 128.3C78.9739 128.326 79.1119 128.351 79.2519 128.371C79.2779 128.375 79.3039 128.378 79.3299 128.382C81.0329 128.622 82.8689 128.44 84.3689 127.85Z" fill="black"/>
<path d="M105.911 100.391C107.917 95.764 108.924 90.826 108.785 86.771C109.707 85.353 110.506 83.784 111.139 82.156C110.293 83.145 109.383 84.009 108.43 84.711C109.403 83.372 110.151 81.707 110.504 80.033C109.592 81.281 108.583 82.387 107.509 83.29C106.648 82.565 105.422 82.509 104.065 83.292C101.02 85.05 98.783 90.131 99.47 93.668C95.549 95.67 92.073 95.172 89.747 92.709C88.511 96.25 89.106 99.606 91.207 100.264C90.434 100.678 89.705 100.815 89.069 100.711C89.018 103.655 90.585 105.476 92.853 104.774C92.189 105.398 91.462 105.872 90.724 106.11C91.323 108.264 93.065 109.076 95.13 107.935C93.147 111.153 90.648 113.521 88.146 114.572C90.234 115.151 92.713 114.761 95.377 113.223C100.041 110.53 103.625 105.663 105.911 100.391Z" fill="white"/>
<path d="M118.446 190.672C118.446 187.832 116.452 184.377 113.992 182.957L110.365 180.863C107.905 179.443 103.916 179.443 101.456 180.863L72.757 197.433C71.481 198.17 70.333 199.456 69.521 200.918C68.866 202.098 68.428 203.392 68.326 204.609C68.311 204.791 68.303 204.971 68.303 205.148V238.287C68.303 241.128 70.298 244.582 72.757 246.002L76.384 248.096C76.531 248.181 76.683 248.259 76.84 248.334C76.896 248.361 76.956 248.384 77.014 248.41C77.115 248.455 77.216 248.5 77.321 248.54C77.398 248.57 77.477 248.597 77.556 248.624C77.644 248.655 77.731 248.686 77.821 248.714C77.915 248.744 78.011 248.77 78.107 248.797C78.181 248.818 78.255 248.838 78.33 248.857C78.444 248.885 78.558 248.911 78.674 248.935C78.729 248.947 78.784 248.958 78.84 248.969C78.978 248.996 79.116 249.019 79.256 249.04C79.282 249.044 79.308 249.047 79.334 249.051C81.403 249.344 83.678 249.028 85.294 248.095L113.993 231.525C116.453 230.105 118.448 226.651 118.448 223.81L118.446 190.672Z" fill="#80D0C7"/>
<path opacity="0.4" d="M82.1419 207.995C81.6379 208.867 81.2549 209.809 81.0379 210.74C81.6019 208.321 83.2939 205.824 85.2919 204.67L113.991 188.1C116.451 186.679 118.445 187.831 118.445 190.672C118.445 187.832 116.451 184.377 113.991 182.957L110.364 180.863C107.904 179.443 103.915 179.443 101.455 180.863L72.7559 197.433C71.4799 198.17 70.3319 199.456 69.5199 200.918C69.5499 200.865 69.5759 200.811 69.6069 200.758L82.1419 207.995Z" fill="white"/>
<path opacity="0.1" d="M84.3689 248.518C84.297 248.542 84.2279 248.558 84.1569 248.577C84.1499 248.579 84.1419 248.581 84.1349 248.583C84.0159 248.615 83.8989 248.64 83.7839 248.659C83.7749 248.66 83.7649 248.662 83.7559 248.663C83.6419 248.68 83.5299 248.692 83.4209 248.696C83.4129 248.696 83.405 248.696 83.3969 248.697C83.2859 248.701 83.1769 248.699 83.0709 248.689H83.0679C82.6389 248.65 82.2549 248.505 81.9319 248.262C81.9199 248.253 81.9069 248.245 81.8939 248.236C81.8369 248.191 81.7839 248.14 81.7309 248.089C81.7019 248.061 81.6709 248.034 81.6429 248.004C81.5989 247.957 81.5579 247.905 81.5169 247.853C81.4849 247.812 81.4529 247.771 81.4219 247.728C81.3869 247.677 81.3539 247.624 81.3219 247.57C81.2909 247.518 81.2609 247.464 81.2329 247.408C81.2059 247.354 81.1799 247.299 81.1549 247.242C81.1269 247.178 81.1019 247.112 81.0779 247.044C81.0579 246.988 81.0379 246.931 81.0199 246.872C80.9969 246.795 80.9779 246.715 80.9589 246.634C80.9459 246.577 80.9309 246.521 80.9199 246.462C80.9019 246.367 80.8899 246.267 80.8779 246.167C80.8719 246.115 80.8629 246.065 80.8579 246.012C80.8439 245.856 80.8359 245.694 80.8359 245.525V212.386C80.8359 212.037 80.867 211.679 80.924 211.316C80.925 211.31 80.9249 211.304 80.9259 211.297C80.9469 211.164 80.9769 211.03 81.0049 210.896C81.0159 210.844 81.0239 210.793 81.0359 210.741C81.2529 209.81 81.6369 208.868 82.1399 207.996L69.6039 200.758C69.5739 200.811 69.5469 200.865 69.5169 200.918C68.8619 202.098 68.4239 203.392 68.3219 204.609C68.3069 204.791 68.299 204.971 68.299 205.148V238.287C68.299 241.128 70.2939 244.582 72.7529 246.002L76.3799 248.096C76.5269 248.181 76.6789 248.259 76.8359 248.334C76.8919 248.361 76.9519 248.384 77.0099 248.41C77.1109 248.455 77.2129 248.5 77.3169 248.54C77.3939 248.57 77.4729 248.597 77.5519 248.624C77.6399 248.655 77.7269 248.686 77.8169 248.714C77.9109 248.744 78.0069 248.771 78.1029 248.797C78.1769 248.818 78.2509 248.838 78.3259 248.857C78.4399 248.885 78.5539 248.911 78.6699 248.935C78.7249 248.947 78.7799 248.958 78.8359 248.969C78.9739 248.995 79.1119 249.019 79.2519 249.04C79.2779 249.044 79.3039 249.047 79.3299 249.051C81.0329 249.29 82.8689 249.109 84.3689 248.518Z" fill="black"/>
<path d="M99.6419 206.028C102.579 204.333 102.927 204.147 104.087 203.548C105.159 202.994 105.742 202.897 106.129 202.874C106.642 202.844 107.009 202.95 107.393 203.241C107.778 203.533 108.016 203.883 108.216 204.452C108.367 204.882 108.546 205.555 108.595 206.957C108.648 208.473 108.659 208.93 108.659 212.846C108.659 216.762 108.648 217.232 108.595 218.809C108.546 220.267 108.366 221.147 108.216 221.75C108.016 222.55 107.778 223.176 107.393 223.911C107.008 224.646 106.642 225.176 106.129 225.738C105.741 226.162 105.158 226.738 104.087 227.422C102.927 228.162 102.579 228.377 99.6419 230.073C96.7049 231.769 96.3569 231.955 95.1979 232.554C94.1259 233.108 93.5429 233.205 93.1559 233.228C92.6419 233.258 92.2759 233.152 91.8909 232.86C91.5059 232.57 91.2679 232.219 91.0679 231.649C90.9169 231.219 90.7379 230.546 90.6889 229.144C90.6369 227.628 90.6249 227.171 90.6249 223.254C90.6249 219.338 90.6359 218.868 90.6889 217.291C90.7379 215.832 90.9179 214.953 91.0679 214.348C91.2669 213.549 91.5059 212.922 91.8909 212.187C92.2759 211.452 92.6419 210.922 93.1559 210.36C93.5429 209.936 94.1259 209.36 95.1979 208.676C96.3569 207.94 96.7049 207.724 99.6419 206.028ZM99.6419 203.386C96.6549 205.11 96.2799 205.344 95.1069 206.092C93.9359 206.839 93.1369 207.549 92.4369 208.315C91.7139 209.107 91.0999 209.963 90.4889 211.131C89.8769 212.3 89.5019 213.335 89.2199 214.461C88.9479 215.55 88.7619 216.724 88.7089 218.316C88.6549 219.911 88.6429 220.418 88.6429 224.401C88.6429 228.384 88.6559 228.876 88.7089 230.409C88.7619 231.94 88.9479 232.898 89.2199 233.674C89.5009 234.476 89.8769 235.078 90.4889 235.54C91.0999 236.002 91.7139 236.15 92.4369 236.107C93.1369 236.066 93.9359 235.852 95.1069 235.247C96.2799 234.641 96.6549 234.441 99.6419 232.717C102.629 230.992 103.004 230.759 104.177 230.011C105.348 229.264 106.148 228.553 106.847 227.787C107.57 226.995 108.184 226.139 108.795 224.971C109.407 223.803 109.783 222.767 110.064 221.641C110.336 220.551 110.521 219.378 110.575 217.786C110.628 216.191 110.641 215.684 110.641 211.701C110.641 207.718 110.628 207.226 110.575 205.692C110.521 204.162 110.335 203.204 110.064 202.428C109.783 201.626 109.407 201.025 108.795 200.563C108.184 200.1 107.57 199.953 106.847 199.996C106.147 200.038 105.348 200.251 104.177 200.856C103.004 201.462 102.629 201.661 99.6419 203.386ZM99.6419 210.521C96.5229 212.322 93.9939 217.153 93.9939 221.313C93.9939 225.472 96.5229 227.384 99.6419 225.583C102.762 223.782 105.291 218.95 105.291 214.791C105.291 210.631 102.762 208.719 99.6419 210.521ZM99.6419 222.941C97.6169 224.11 95.9759 222.869 95.9759 220.169C95.9759 217.469 97.6179 214.333 99.6419 213.163C101.667 211.994 103.308 213.235 103.308 215.935C103.308 218.635 101.667 221.771 99.6419 222.941ZM106.834 206.071C106.834 205.1 106.243 204.652 105.514 205.073C104.785 205.494 104.194 206.623 104.194 207.595C104.194 208.566 104.785 209.014 105.514 208.593C106.243 208.173 106.834 207.043 106.834 206.071Z" fill="white"/>
<path d="M168.413 113.513C168.413 110.672 166.419 107.218 163.959 105.798L160.332 103.704C157.872 102.283 153.883 102.283 151.423 103.704L122.724 120.274C121.448 121.011 120.3 122.297 119.487 123.759C118.832 124.939 118.394 126.233 118.292 127.45C118.277 127.632 118.269 127.812 118.269 127.989V161.128C118.269 163.969 120.264 167.423 122.723 168.843L126.35 170.937C126.497 171.022 126.649 171.101 126.806 171.175C126.863 171.202 126.922 171.225 126.98 171.251C127.081 171.296 127.183 171.341 127.287 171.381C127.364 171.411 127.443 171.438 127.522 171.465C127.61 171.496 127.697 171.527 127.786 171.555C127.88 171.585 127.976 171.611 128.072 171.638C128.146 171.659 128.22 171.679 128.295 171.698C128.409 171.727 128.523 171.752 128.639 171.777C128.694 171.789 128.749 171.8 128.805 171.81C128.942 171.837 129.081 171.86 129.221 171.881C129.247 171.885 129.273 171.888 129.299 171.892C131.368 172.185 133.643 171.869 135.259 170.936L163.958 154.366C166.418 152.946 168.413 149.492 168.413 146.651V113.513Z" fill="#80D0C7"/>
<path opacity="0.4" d="M132.109 130.836C131.605 131.708 131.222 132.65 131.005 133.581C131.569 131.162 133.261 128.665 135.259 127.511L163.958 110.941C166.418 109.521 168.412 110.672 168.412 113.513C168.412 110.672 166.418 107.218 163.958 105.798L160.331 103.704C157.871 102.283 153.882 102.283 151.422 103.704L122.723 120.274C121.447 121.011 120.299 122.297 119.486 123.759C119.515 123.706 119.542 123.652 119.573 123.599L132.109 130.836Z" fill="white"/>
<path opacity="0.1" d="M134.336 171.358C134.264 171.382 134.195 171.398 134.124 171.417C134.117 171.419 134.109 171.421 134.102 171.423C133.983 171.455 133.866 171.48 133.751 171.498C133.742 171.5 133.732 171.501 133.723 171.502C133.609 171.519 133.497 171.531 133.388 171.535C133.38 171.535 133.372 171.535 133.364 171.536C133.253 171.54 133.144 171.538 133.038 171.529H133.035C132.606 171.49 132.222 171.345 131.899 171.102C131.887 171.093 131.874 171.086 131.862 171.076C131.805 171.031 131.752 170.98 131.699 170.929C131.67 170.901 131.639 170.874 131.611 170.844C131.567 170.797 131.526 170.745 131.485 170.693C131.453 170.652 131.421 170.611 131.39 170.568C131.355 170.517 131.322 170.464 131.29 170.41C131.259 170.358 131.229 170.304 131.201 170.248C131.174 170.194 131.148 170.139 131.123 170.082C131.095 170.018 131.07 169.952 131.046 169.884C131.026 169.827 131.006 169.771 130.988 169.712C130.965 169.635 130.946 169.555 130.927 169.474C130.914 169.417 130.899 169.361 130.888 169.301C130.87 169.206 130.858 169.107 130.846 169.006C130.84 168.954 130.831 168.904 130.826 168.851C130.812 168.694 130.804 168.533 130.804 168.364V135.225C130.804 134.876 130.835 134.517 130.892 134.155C130.893 134.149 130.893 134.143 130.894 134.136C130.915 134.003 130.945 133.869 130.973 133.735C130.984 133.683 130.992 133.632 131.004 133.58C131.221 132.649 131.605 131.708 132.108 130.835L119.572 123.597C119.542 123.649 119.515 123.704 119.485 123.757C118.83 124.937 118.392 126.231 118.29 127.448C118.275 127.63 118.267 127.81 118.267 127.987V161.126C118.267 163.967 120.262 167.421 122.721 168.841L126.348 170.935C126.495 171.02 126.647 171.098 126.804 171.173C126.861 171.2 126.92 171.223 126.978 171.249C127.079 171.294 127.181 171.339 127.285 171.379C127.362 171.409 127.441 171.436 127.52 171.463C127.607 171.494 127.695 171.525 127.784 171.553C127.878 171.583 127.974 171.61 128.07 171.636C128.144 171.657 128.218 171.677 128.293 171.696C128.407 171.724 128.521 171.75 128.637 171.775C128.692 171.787 128.747 171.798 128.803 171.808C128.94 171.834 129.079 171.859 129.219 171.879C129.245 171.883 129.271 171.886 129.297 171.89C131 172.13 132.836 171.949 134.336 171.358Z" fill="black"/>
<path d="M146.509 159.315L151.297 156.551V140.566L154.637 138.637L154.993 133.079L151.296 135.213C151.296 135.213 151.296 133.215 151.296 132.164C151.296 130.902 151.486 130.294 152.401 129.766C153.137 129.341 154.992 128.27 154.992 128.27V122.715C154.992 122.715 152.26 124.292 151.677 124.629C148.114 126.686 146.508 129.705 146.508 133.71C146.508 137.199 146.508 137.977 146.508 137.977L144.018 139.415V144.834L146.508 143.396V159.315H146.509Z" fill="white"/>
<path d="M103.56 367.99L218.29 434.211C220.691 435.598 224.585 435.598 226.986 434.211L405.914 330.929C408.315 329.542 408.315 327.295 405.914 325.908L291.182 259.667C288.781 258.28 284.888 258.28 282.486 259.667L103.559 362.971C101.158 364.357 101.158 366.605 103.56 367.99Z" fill="#E0E0E0"/>
<path d="M107.166 352.023L218.653 416.387C221.08 417.789 225.016 417.789 227.443 416.387L404.19 314.342C406.617 312.941 406.617 310.669 404.19 309.267L292.702 244.902C290.275 243.5 286.339 243.5 283.912 244.902L107.166 346.948C104.739 348.349 104.739 350.621 107.166 352.023Z" fill="#37474F"/>
<path d="M218.654 416.387L107.167 352.023C104.997 350.77 104.773 348.822 106.484 347.422C104.384 349.016 102.772 352.028 102.772 354.561V358.693C102.772 361.496 104.74 364.904 107.167 366.306L218.654 430.67C219.867 431.371 221.458 431.722 223.049 431.722V417.439C221.458 417.439 219.867 417.088 218.654 416.387Z" fill="#455A64"/>
<path d="M404.189 328.624C406.617 327.223 408.584 323.815 408.584 321.013V316.879C408.584 314.345 406.97 311.331 404.868 309.738C406.585 311.139 406.363 313.088 404.19 314.342L227.444 416.387C226.23 417.088 224.639 417.439 223.049 417.439V431.722C224.639 431.722 226.23 431.371 227.444 430.67L404.189 328.624Z" fill="#263238"/>
<path d="M167.037 381.732C170.409 383.679 175.875 383.679 179.246 381.732C182.618 379.785 182.618 376.63 179.246 374.683C175.874 372.736 170.408 372.736 167.037 374.683C163.666 376.63 163.666 379.786 167.037 381.732Z" fill="#263238"/>
<path d="M236.039 402.733L129.294 341.077C127.838 340.236 127.838 338.873 129.294 338.032L268.276 257.755C269.733 256.913 272.094 256.913 273.55 257.754L380.273 319.396C381.729 320.237 381.729 321.6 380.273 322.441L241.313 402.733C239.856 403.574 237.495 403.574 236.039 402.733Z" fill="white"/>
<path d="M340.378 281.606C341.231 282.1 342.616 282.099 343.47 281.606C344.324 281.113 344.324 280.313 343.47 279.821C342.617 279.328 341.232 279.328 340.378 279.821C339.523 280.314 339.523 281.114 340.378 281.606Z" fill="#263238"/>
<path d="M345.319 295.628C347.027 296.614 349.795 296.614 351.503 295.628C353.211 294.642 353.211 293.043 351.503 292.058C349.795 291.072 347.027 291.072 345.319 292.058C343.611 293.043 343.611 294.642 345.319 295.628Z" fill="#263238"/>
<path d="M340.958 289.414C342.097 288.757 342.036 287.657 340.822 286.956L320.479 275.211C319.266 274.51 317.359 274.474 316.22 275.132C315.082 275.79 315.142 276.89 316.356 277.591L336.7 289.336C337.914 290.037 339.821 290.072 340.958 289.414Z" fill="#263238"/>
<path d="M266.486 274.327C265.029 275.169 265.029 276.531 266.486 277.372L347.794 324.315C349.25 325.157 351.612 325.157 353.069 324.317L371.047 313.951L284.475 263.948L266.486 274.327Z" fill="#EBEBEB"/>
<path d="M267.092 282.483L260.604 278.738C260.118 278.458 259.331 278.458 258.847 278.738L254.757 281.098C254.272 281.378 254.272 281.832 254.757 282.113L255.325 282.441L253.254 283.537C253.006 283.668 253.032 283.753 253.312 283.726L256.952 283.379L261.249 285.859C261.735 286.139 262.522 286.139 263.007 285.859L267.093 283.498C267.577 283.218 267.577 282.763 267.092 282.483Z" fill="#EBEBEB"/>
<path d="M268.958 292.237L268.484 291.242C267.86 289.931 267.493 288.151 269.283 287.118C270.497 286.417 272.465 286.417 273.678 287.118C274.624 287.664 274.833 288.474 274.305 289.136C275.452 288.832 276.855 288.953 277.801 289.498C279.014 290.2 279.014 291.336 277.801 292.036C276.043 293.051 272.962 292.85 270.686 292.503L268.958 292.237Z" fill="#EBEBEB"/>
<path d="M179.901 327.361L261.213 374.305C262.669 375.146 265.03 375.146 266.487 374.305L329.807 337.74C331.263 336.899 331.263 335.537 329.807 334.695L248.497 287.752C247.04 286.911 244.679 286.911 243.223 287.752L179.901 324.316C178.445 325.157 178.445 326.521 179.901 327.361Z" fill="#EBEBEB"/>
<path d="M180.515 332.469L174.027 328.723C173.541 328.443 172.754 328.443 172.269 328.723L168.18 331.084C167.694 331.364 167.694 331.818 168.18 332.099L168.748 332.426L166.677 333.523C166.429 333.654 166.454 333.739 166.734 333.712L170.374 333.364L174.672 335.845C175.157 336.126 175.944 336.126 176.43 335.845L180.516 333.484C181.001 333.204 181.001 332.749 180.515 332.469Z" fill="#EBEBEB"/>
<path d="M182.381 342.224L181.907 341.228C181.284 339.918 180.917 338.137 182.707 337.105C183.92 336.404 185.888 336.404 187.102 337.105C188.048 337.651 188.256 338.461 187.728 339.123C188.876 338.819 190.279 338.94 191.225 339.485C192.439 340.186 192.438 341.322 191.225 342.023C189.468 343.037 186.386 342.837 184.11 342.489L182.381 342.224Z" fill="#EBEBEB"/>
<path d="M156.651 337.739C158.108 336.898 160.469 336.898 161.925 337.739L243.234 384.683C244.69 385.524 244.69 386.887 243.234 387.728L226.645 397.306L140.08 347.306L156.651 337.739Z" fill="#EBEBEB"/>
<path d="M246.974 326.928L200.693 339.365L200.698 339.368L261.212 374.306C262.668 375.147 265.029 375.147 266.486 374.306L267.799 373.547L293.904 335.236L238.463 346.123L246.974 326.928Z" fill="#E0E0E0"/>
<path d="M269.794 300.047L248.497 287.752C247.04 286.911 244.679 286.911 243.223 287.752L219.423 301.495C220.514 303.574 222.761 305.542 226.171 307.168C236.198 311.948 252.455 311.948 262.482 307.168C266.675 305.17 269.109 302.651 269.794 300.047Z" fill="#E0E0E0"/>
<path opacity="0.2" d="M372.464 295.723L265.741 234.081C264.285 233.24 261.923 233.24 260.467 234.081L121.485 314.359C120.028 315.199 120.028 316.563 121.485 317.404L144.041 330.433L228.23 379.06C229.686 379.902 232.047 379.902 233.504 379.06L358.616 306.77L372.464 298.768C373.92 297.928 373.92 296.565 372.464 295.723Z" fill="white"/>
<path d="M372.717 295.284L284.477 244.317L265.994 233.642C264.374 232.707 261.836 232.706 260.212 233.642L121.231 313.92C120.363 314.421 119.885 315.117 119.885 315.882C119.885 316.646 120.363 317.343 121.231 317.844L143.787 330.873L227.976 379.5C228.786 379.969 229.827 380.203 230.867 380.203C231.907 380.203 232.947 379.969 233.758 379.5L358.869 307.21L372.717 299.208C373.584 298.708 374.063 298.011 374.063 297.247C374.063 296.483 373.586 295.786 372.717 295.284ZM372.21 298.329L358.362 306.331L233.25 378.621C231.957 379.367 229.775 379.367 228.484 378.621L144.295 329.994L121.739 316.965C121.206 316.657 120.9 316.262 120.9 315.882C120.9 315.501 121.206 315.107 121.739 314.799L260.721 234.522C262.015 233.775 264.196 233.776 265.488 234.522L283.971 245.197L372.211 296.163C372.744 296.471 373.05 296.867 373.05 297.247C373.048 297.626 372.742 298.021 372.21 298.329Z" fill="white"/>
<path d="M324.568 45.739C326.044 44.887 327.24 45.578 327.24 47.282V243.87C327.24 245.574 326.043 247.647 324.568 248.499L247.845 292.796L238.88 322.843C238.068 325.565 236.453 325.677 235.273 323.092L226.951 304.858L204.551 317.79C203.075 318.642 201.878 317.952 201.878 316.247V119.659C201.878 117.955 203.075 115.882 204.551 115.03L324.568 45.739Z" fill="#80D0C7"/>
<path d="M314.77 197.501C314.77 199.767 313.075 202.581 310.985 203.788L268.829 228.126C266.738 229.334 265.043 228.476 265.043 226.21C265.043 223.945 266.739 221.13 268.829 219.923L310.984 195.586C313.075 194.379 314.77 195.237 314.77 197.501Z" fill="white"/>
<path d="M307.04 221.814C307.041 224.079 305.345 226.894 303.255 228.101L268.203 248.338C266.112 249.545 264.417 248.688 264.417 246.422C264.417 244.157 266.113 241.342 268.203 240.135L303.254 219.899C305.345 218.692 307.04 219.549 307.04 221.814Z" fill="white"/>
<path d="M243.85 256.394L243.757 255.208C241.851 260.029 238.968 263.491 235.76 265.343C230.088 268.618 225.021 265.715 225.021 257.035C225.021 248.85 229.066 239.881 235.249 236.311C239.34 233.949 242.131 235.687 242.595 236.72C242.595 236.72 242.595 235.818 242.595 234.705C242.595 233.592 243.719 232.041 245.106 231.24C246.493 230.44 247.617 231.173 247.617 232.877V251.43C247.617 253.786 248.501 254.268 249.756 253.544C252.035 252.228 254.127 246.618 254.127 240.232C254.127 227.893 247.664 222.138 237.342 228.097C227.672 233.68 220 247.782 220 260.058C220 272.149 227.253 276.765 236.737 271.29C238.884 270.05 241.571 267.778 243.885 264.94C244.962 263.619 246.136 263.219 246.662 264.164C247.189 265.11 246.864 267.038 245.791 268.362C243.093 271.69 239.57 274.8 236.737 276.436C224.929 283.253 216.002 277.308 216.002 262.365C216.002 247.112 225.347 229.998 237.342 223.073C249.29 216.175 258.124 222.298 258.124 237.737C258.124 247.099 254.451 255.295 249.244 258.301C246.407 259.939 244.361 259.57 243.85 256.394ZM230.46 253.584C230.46 258.358 232.785 260.984 236.318 258.944C239.991 256.823 242.268 251.665 242.268 246.829C242.268 242.179 239.897 239.827 236.224 241.948C232.785 243.933 230.46 248.996 230.46 253.584Z" fill="white"/>
<path d="M264.559 109.004C285.266 97.049 302.052 106.741 302.052 130.65C302.052 154.559 285.266 183.634 264.56 195.589C243.853 207.544 227.067 197.852 227.067 173.943C227.067 150.034 243.853 120.959 264.559 109.004Z" fill="white"/>
<path d="M264.559 109.004C285.266 97.049 302.052 106.741 302.052 130.65C302.052 154.559 285.266 183.634 264.56 195.589C243.853 207.544 227.067 197.852 227.067 173.943C227.067 150.034 243.853 120.959 264.559 109.004Z" fill="#F5F5F5"/>
<mask id="mask0_848_129" style="mask-type:luminance" maskUnits="userSpaceOnUse" x="227" y="103" width="76" height="98">
<path d="M264.559 109.004C285.266 97.049 302.052 106.741 302.052 130.65C302.052 154.559 285.266 183.634 264.56 195.589C243.853 207.544 227.067 197.852 227.067 173.943C227.067 150.034 243.853 120.959 264.559 109.004Z" fill="white"/>
</mask>
<g mask="url(#mask0_848_129)">
<path d="M250.89 140.751C250.89 140.751 248.483 140.984 246.606 143.406C244.766 145.781 245.148 149.162 246.609 156.775L252.296 155.904L250.89 140.751Z" fill="#263238"/>
<path d="M284.051 129.55C284.051 129.55 286.349 128.936 287.609 127.874C289.355 126.404 289.811 128.265 288.854 130.245C287.898 132.225 286.11 134.949 282.256 136.408C282.205 136.174 280.623 132.403 280.623 132.403L284.051 129.55Z" fill="#263238"/>
<path d="M254.161 180.001C254.161 180.001 243.564 186.841 241.26 189.254C238.956 191.667 238.009 199.172 237.16 208.36C237.16 208.36 249.229 213.45 268.172 204.078C287.114 194.706 288.813 187.296 288.813 187.296C288.813 187.296 286.366 176.168 285.456 173.083C284.302 169.168 282.081 166.351 269.168 172.207L254.161 180.001Z" fill="#263238"/>
<path d="M253.558 155.569C252.714 156.299 251.51 155 250.468 154.19C249.427 153.379 246.028 152.802 244.332 156.829C242.604 160.933 246.527 164.724 248.831 165.708C251.568 166.876 253.559 164.851 253.559 164.851L254.162 180.002C254.162 180.002 257.183 185.194 265.359 184.111C273.537 183.028 271.853 174.792 269.168 172.207L269.155 169.093C269.155 169.093 273.379 168.812 275.372 167.746C276.438 167.176 278.983 163.418 280.624 159.537C282.468 155.179 285.535 147.497 282.804 136.626C279.871 124.948 266.482 128.155 258.498 135.32C250.514 142.485 253.558 155.569 253.558 155.569Z" fill="#FFA8A7"/>
<path d="M286.356 117.826C285.637 115.475 285.204 115.889 279.411 119.957C273.618 124.026 269.074 125.499 264.83 126.789C260.752 128.029 255.174 129.014 252.295 132.804C250.767 134.816 250.465 136.931 250.518 138.473C250.284 138.253 249.996 138.087 249.657 137.996C248.246 137.617 246.517 138.653 245.792 140.31L250.762 141.646C250.366 144.52 249.248 153.408 250.467 154.191C251.518 154.865 253.133 157.112 253.558 156.991C254.985 156.581 255.599 150.244 256.341 146.404C257.186 142.029 257.521 140.422 259.087 140.216C260.238 140.065 268.653 138.594 274.056 136.489C279.459 134.383 281.012 132.59 281.012 132.59L283.887 130.762C287.344 125.931 287.074 120.177 286.356 117.826Z" fill="#263238"/>
<path d="M269.154 169.093C269.154 169.093 261.583 169.596 258.936 168.899C257.164 168.432 255.705 167.191 255.276 166.259C255.276 166.259 255.772 168.373 257.355 169.972C259.291 171.928 269.153 171.108 269.153 171.108L269.154 169.093Z" fill="#F28F8F"/>
<path d="M267.22 160.303L270.684 160.674C270.342 161.759 269.289 162.555 268.331 162.452C267.374 162.35 266.877 161.387 267.22 160.303Z" fill="#F28F8F"/>
<path d="M272.223 146.804L272.721 155.795L277.485 152.895L272.223 146.804Z" fill="#F28F8F"/>
<path d="M267.334 149.985C267.334 150.856 266.655 151.742 265.816 151.964C264.978 152.186 264.299 151.661 264.299 150.79C264.299 149.919 264.978 149.033 265.816 148.811C266.655 148.589 267.334 149.114 267.334 149.985Z" fill="#263238"/>
<path d="M265.725 144.688L262.479 147.349C262.001 146.544 262.339 145.296 263.235 144.562C264.132 143.827 265.247 143.883 265.725 144.688Z" fill="#263238"/>
<path d="M280.864 141.894L277.904 140.408C278.507 139.399 279.659 138.913 280.477 139.324C281.294 139.734 281.467 140.885 280.864 141.894Z" fill="#263238"/>
<path d="M279.953 146.172C279.953 147.042 279.273 147.929 278.435 148.151C277.597 148.374 276.918 147.848 276.918 146.977C276.918 146.106 277.597 145.22 278.435 144.998C279.273 144.775 279.953 145.301 279.953 146.172Z" fill="#263238"/>
</g>
</svg>
