<svg width="21" height="20" viewBox="0 0 21 20" fill="none" xmlns="http://www.w3.org/2000/svg">
<circle cx="9" cy="12" r="6" fill="#80D0C7" fill-opacity="0.5"/>
<path d="M19.3423 7.31728L19.4342 8.00113C19.6486 9.60416 19.3392 11.2336 18.5519 12.6464C17.7647 14.0592 16.5419 15.1796 15.0658 15.8407C13.5898 16.5017 11.9396 16.6679 10.3613 16.3144C8.78312 15.961 7.36143 15.1068 6.30831 13.8794C5.25519 12.6519 4.62705 11.1169 4.5176 9.50332C4.40814 7.88971 4.82321 6.28395 5.70092 4.92552C6.57863 3.56708 7.87194 2.52876 9.38797 1.96541C10.904 1.40206 12.5615 1.34387 14.1133 1.79951" stroke="#125064" stroke-width="1.5" stroke-linecap="round" stroke-linejoin="round"/>
<path d="M18 3L9 12" stroke="#125064" stroke-width="1.5" stroke-linecap="round" stroke-linejoin="round"/>
<path d="M9 6L15 12" stroke="#125064" stroke-width="1.5" stroke-linecap="round" stroke-linejoin="round"/>
</svg>
