<svg width="197" height="29" viewBox="0 0 197 29" fill="none" xmlns="http://www.w3.org/2000/svg">
<path d="M6.20312 25H0.387695V3.90625H6.20312V13.1201H13.9082V3.90625H19.7236V25H13.9082V15.8008H6.20312V25ZM27.9268 16.9727C28.5322 17.1094 29.1377 17.2168 29.7432 17.2949C30.3486 17.373 30.959 17.4121 31.5742 17.4121C32.2188 17.4121 32.8145 17.3535 33.3613 17.2363C33.918 17.1094 34.3965 16.9043 34.7969 16.6211C35.207 16.3281 35.5293 15.9424 35.7637 15.4639C35.998 14.9854 36.1152 14.3896 36.1152 13.6768C36.1152 13.1006 36.0371 12.5732 35.8809 12.0947C35.7246 11.6162 35.4902 11.2061 35.1777 10.8643C34.875 10.5225 34.499 10.2588 34.0498 10.0732C33.6006 9.87793 33.0781 9.78027 32.4824 9.78027C31.9258 9.78027 31.4229 9.88281 30.9736 10.0879C30.5342 10.293 30.1436 10.5713 29.8018 10.9229C29.4697 11.2646 29.1816 11.665 28.9375 12.124C28.7031 12.583 28.5078 13.0615 28.3516 13.5596C28.1953 14.0576 28.083 14.5605 28.0146 15.0684C27.9463 15.5762 27.9121 16.0547 27.9121 16.5039C27.9121 16.582 27.9121 16.6602 27.9121 16.7383C27.9121 16.8164 27.917 16.8945 27.9268 16.9727ZM40.1289 13.6328C40.1289 14.3262 40.0166 14.9463 39.792 15.4932C39.5674 16.0303 39.2598 16.5039 38.8691 16.9141C38.4883 17.3242 38.0439 17.6709 37.5361 17.9541C37.0283 18.2373 36.4863 18.4717 35.9102 18.6572C35.334 18.833 34.7383 18.96 34.123 19.0381C33.5176 19.1162 32.9268 19.1553 32.3506 19.1553C31.6182 19.1553 30.8955 19.1064 30.1826 19.0088C29.4697 18.9014 28.7666 18.7354 28.0732 18.5107C28.1807 19.1553 28.3516 19.7705 28.5859 20.3564C28.8203 20.9326 29.1328 21.4404 29.5234 21.8799C29.9141 22.3096 30.3926 22.6514 30.959 22.9053C31.5352 23.1592 32.2139 23.2861 32.9951 23.2861C33.5127 23.2861 34.0059 23.208 34.4746 23.0518C34.9434 22.8955 35.373 22.6758 35.7637 22.3926C36.1543 22.1094 36.4961 21.7725 36.7891 21.3818C37.0918 20.9912 37.3359 20.5566 37.5215 20.0781L39.6602 20.8691C39.3379 21.6406 38.8936 22.3096 38.3271 22.876C37.7705 23.4326 37.1357 23.8965 36.4229 24.2676C35.7197 24.6289 34.9678 24.8975 34.167 25.0732C33.376 25.249 32.5898 25.3369 31.8086 25.3369C30.5195 25.3369 29.3281 25.1221 28.2344 24.6924C27.1406 24.2529 26.1982 23.6426 25.4072 22.8613C24.6162 22.0801 23.9961 21.1475 23.5469 20.0635C23.0977 18.9795 22.873 17.793 22.873 16.5039C22.873 15.2148 23.0977 14.0283 23.5469 12.9443C23.9961 11.8604 24.6162 10.9277 25.4072 10.1465C26.1982 9.36523 27.1406 8.75977 28.2344 8.33008C29.3281 7.89062 30.5195 7.6709 31.8086 7.6709C32.4336 7.6709 33.0732 7.71484 33.7275 7.80273C34.3818 7.89062 35.0166 8.03223 35.6318 8.22754C36.2471 8.41309 36.8281 8.65723 37.375 8.95996C37.9219 9.2627 38.3955 9.63867 38.7959 10.0879C39.2061 10.5273 39.5283 11.04 39.7627 11.626C40.0068 12.2119 40.1289 12.8809 40.1289 13.6328ZM60.2559 25H55.3047V22.9785C54.7188 23.7793 54.0107 24.375 53.1807 24.7656C52.3604 25.1465 51.457 25.3369 50.4707 25.3369C49.1816 25.3369 48.0293 25.1074 47.0137 24.6484C45.998 24.1895 45.1387 23.5645 44.4355 22.7734C43.7324 21.9727 43.1953 21.0352 42.8242 19.9609C42.4531 18.8867 42.2676 17.7344 42.2676 16.5039C42.2676 15.2734 42.4531 14.1211 42.8242 13.0469C43.1953 11.9727 43.7324 11.04 44.4355 10.249C45.1387 9.44824 45.998 8.81836 47.0137 8.35938C48.0293 7.90039 49.1816 7.6709 50.4707 7.6709C51.125 7.6709 51.7451 7.76855 52.3311 7.96387C52.9268 8.15918 53.4688 8.4375 53.957 8.79883C54.4551 9.15039 54.8896 9.58008 55.2607 10.0879C55.6416 10.5859 55.9395 11.1426 56.1543 11.7578L58.3516 8.08105H60.2559V25ZM55.2754 16.5039C55.2754 16.0645 55.251 15.6006 55.2021 15.1123C55.1631 14.624 55.0898 14.1406 54.9824 13.6621C54.875 13.1836 54.7236 12.7295 54.5283 12.2998C54.3428 11.8604 54.0986 11.4746 53.7959 11.1426C53.5029 10.8008 53.1465 10.5322 52.7266 10.3369C52.3066 10.1416 51.8184 10.0439 51.2617 10.0439C50.7051 10.0439 50.2217 10.1465 49.8115 10.3516C49.4014 10.5469 49.0498 10.8154 48.7568 11.1572C48.4639 11.4893 48.2197 11.875 48.0244 12.3145C47.8389 12.7539 47.6924 13.2129 47.585 13.6914C47.4775 14.1699 47.3994 14.6533 47.3506 15.1416C47.3115 15.6201 47.292 16.0742 47.292 16.5039C47.292 16.9336 47.3115 17.3926 47.3506 17.8809C47.3994 18.3691 47.4775 18.8525 47.585 19.3311C47.6924 19.8096 47.8389 20.2686 48.0244 20.708C48.2197 21.1475 48.4639 21.5381 48.7568 21.8799C49.0498 22.2119 49.4014 22.4805 49.8115 22.6855C50.2217 22.8809 50.7051 22.9785 51.2617 22.9785C51.7695 22.9785 52.2188 22.876 52.6094 22.6709C53.0098 22.4561 53.3564 22.1729 53.6494 21.8213C53.9521 21.4697 54.2061 21.0693 54.4111 20.6201C54.6162 20.1709 54.7822 19.707 54.9092 19.2285C55.0361 18.75 55.1289 18.2764 55.1875 17.8076C55.2461 17.3291 55.2754 16.8945 55.2754 16.5039ZM69.3525 25H64.4014V0.288086H66.3057L69.3525 5.42969V25ZM79.8555 25H74.8896V10.0439H71.8135V8.08105H74.8896V1.85547H79.8555V8.08105H84.9824V10.0439H79.8555V25ZM104.582 15.3027C104.582 16.4453 104.44 17.6367 104.157 18.877C103.884 20.1172 103.498 21.333 103 22.5244C102.502 23.7158 101.906 24.834 101.213 25.8789C100.52 26.9336 99.7578 27.8418 98.9277 28.6035L97.0674 27.5928C97.3311 27.1045 97.5801 26.5576 97.8145 25.9521C98.0488 25.3467 98.2588 24.707 98.4443 24.0332C98.6396 23.3496 98.8105 22.6465 98.957 21.9238C99.1133 21.2012 99.2402 20.4883 99.3379 19.7852C99.4453 19.0723 99.5234 18.3838 99.5723 17.7197C99.6309 17.0459 99.6602 16.4209 99.6602 15.8447C99.6602 15.4639 99.6455 15.0586 99.6162 14.6289C99.5869 14.1895 99.5234 13.7549 99.4258 13.3252C99.3379 12.8857 99.2158 12.4658 99.0596 12.0654C98.9033 11.665 98.6934 11.3135 98.4297 11.0107C98.1758 10.708 97.8633 10.4639 97.4922 10.2783C97.1309 10.0928 96.7012 10 96.2031 10C95.7148 10 95.2803 10.1123 94.8994 10.3369C94.5186 10.5518 94.1816 10.8398 93.8887 11.2012C93.5957 11.5527 93.3418 11.958 93.127 12.417C92.9219 12.876 92.751 13.3496 92.6143 13.8379C92.4873 14.3164 92.3945 14.79 92.3359 15.2588C92.2773 15.7275 92.248 16.1475 92.248 16.5186V25H87.2822V1.85547H92.2334V10.5713C92.8682 9.64355 93.6445 8.93066 94.5625 8.43262C95.4902 7.9248 96.5156 7.6709 97.6387 7.6709C98.8105 7.6709 99.8311 7.86133 100.7 8.24219C101.569 8.62305 102.292 9.15527 102.868 9.83887C103.444 10.5127 103.874 11.3184 104.157 12.2559C104.44 13.1836 104.582 14.1992 104.582 15.3027ZM113.986 25H108.171V3.90625H119.567C120.554 3.90625 121.496 4.03809 122.395 4.30176C123.303 4.56543 124.104 4.96582 124.797 5.50293C125.49 6.03027 126.042 6.69922 126.452 7.50977C126.872 8.31055 127.082 9.25293 127.082 10.3369C127.082 11.0205 126.984 11.665 126.789 12.2705C126.594 12.8662 126.32 13.4131 125.969 13.9111C125.627 14.4092 125.222 14.8584 124.753 15.2588C124.284 15.6592 123.771 15.9961 123.215 16.2695C122.658 16.543 122.067 16.7529 121.442 16.8994C120.827 17.0459 120.202 17.1191 119.567 17.1191H113.986V25ZM121.193 10.3369C121.193 8.97949 120.847 7.91504 120.153 7.14355C119.47 6.3623 118.435 5.97168 117.048 5.97168H113.986V15.127H117.048C117.79 15.127 118.42 15.0098 118.938 14.7754C119.465 14.5312 119.895 14.1943 120.227 13.7646C120.559 13.335 120.803 12.832 120.959 12.2559C121.115 11.6699 121.193 11.0303 121.193 10.3369ZM144.001 9.5752L141.218 14.1895C141.101 13.7988 140.949 13.3594 140.764 12.8711C140.578 12.3828 140.349 11.9287 140.075 11.5088C139.802 11.0791 139.475 10.7227 139.094 10.4395C138.713 10.1465 138.273 10 137.775 10C137.316 10 136.916 10.1172 136.574 10.3516C136.242 10.5859 135.959 10.8936 135.725 11.2744C135.49 11.6455 135.295 12.0703 135.139 12.5488C134.992 13.0176 134.875 13.4961 134.787 13.9844C134.709 14.4629 134.655 14.9268 134.626 15.376C134.597 15.8154 134.582 16.1963 134.582 16.5186V25H129.616V8.08105H131.521L133.527 12.0215C133.801 11.3867 134.113 10.8057 134.465 10.2783C134.816 9.74121 135.222 9.28223 135.681 8.90137C136.14 8.51074 136.657 8.20801 137.233 7.99316C137.819 7.77832 138.479 7.6709 139.211 7.6709C139.592 7.6709 140.017 7.70508 140.485 7.77344C140.954 7.83203 141.413 7.93945 141.862 8.0957C142.312 8.24219 142.727 8.4375 143.107 8.68164C143.488 8.92578 143.786 9.22363 144.001 9.5752ZM162.766 25H157.814V22.9785C157.229 23.7793 156.521 24.375 155.69 24.7656C154.87 25.1465 153.967 25.3369 152.98 25.3369C151.691 25.3369 150.539 25.1074 149.523 24.6484C148.508 24.1895 147.648 23.5645 146.945 22.7734C146.242 21.9727 145.705 21.0352 145.334 19.9609C144.963 18.8867 144.777 17.7344 144.777 16.5039C144.777 15.2734 144.963 14.1211 145.334 13.0469C145.705 11.9727 146.242 11.04 146.945 10.249C147.648 9.44824 148.508 8.81836 149.523 8.35938C150.539 7.90039 151.691 7.6709 152.98 7.6709C153.635 7.6709 154.255 7.76855 154.841 7.96387C155.437 8.15918 155.979 8.4375 156.467 8.79883C156.965 9.15039 157.399 9.58008 157.771 10.0879C158.151 10.5859 158.449 11.1426 158.664 11.7578L160.861 8.08105H162.766V25ZM157.785 16.5039C157.785 16.0645 157.761 15.6006 157.712 15.1123C157.673 14.624 157.6 14.1406 157.492 13.6621C157.385 13.1836 157.233 12.7295 157.038 12.2998C156.853 11.8604 156.608 11.4746 156.306 11.1426C156.013 10.8008 155.656 10.5322 155.236 10.3369C154.816 10.1416 154.328 10.0439 153.771 10.0439C153.215 10.0439 152.731 10.1465 152.321 10.3516C151.911 10.5469 151.56 10.8154 151.267 11.1572C150.974 11.4893 150.729 11.875 150.534 12.3145C150.349 12.7539 150.202 13.2129 150.095 13.6914C149.987 14.1699 149.909 14.6533 149.86 15.1416C149.821 15.6201 149.802 16.0742 149.802 16.5039C149.802 16.9336 149.821 17.3926 149.86 17.8809C149.909 18.3691 149.987 18.8525 150.095 19.3311C150.202 19.8096 150.349 20.2686 150.534 20.708C150.729 21.1475 150.974 21.5381 151.267 21.8799C151.56 22.2119 151.911 22.4805 152.321 22.6855C152.731 22.8809 153.215 22.9785 153.771 22.9785C154.279 22.9785 154.729 22.876 155.119 22.6709C155.52 22.4561 155.866 22.1729 156.159 21.8213C156.462 21.4697 156.716 21.0693 156.921 20.6201C157.126 20.1709 157.292 19.707 157.419 19.2285C157.546 18.75 157.639 18.2764 157.697 17.8076C157.756 17.3291 157.785 16.8945 157.785 16.5039ZM182.526 12.2705L180.388 13.1201C180.046 12.0459 179.475 11.2207 178.674 10.6445C177.873 10.0684 176.911 9.78027 175.788 9.78027C175.183 9.78027 174.641 9.87793 174.162 10.0732C173.693 10.2588 173.278 10.5176 172.917 10.8496C172.565 11.1816 172.263 11.5674 172.009 12.0068C171.765 12.4463 171.564 12.915 171.408 13.4131C171.252 13.9111 171.14 14.4287 171.071 14.9658C171.003 15.4932 170.969 16.0059 170.969 16.5039C170.969 17.041 170.998 17.583 171.057 18.1299C171.115 18.6768 171.213 19.2041 171.35 19.7119C171.496 20.21 171.687 20.6787 171.921 21.1182C172.155 21.5479 172.448 21.9238 172.8 22.2461C173.161 22.5684 173.586 22.8223 174.074 23.0078C174.572 23.1934 175.144 23.2861 175.788 23.2861C176.306 23.2861 176.799 23.208 177.268 23.0518C177.736 22.8955 178.166 22.6758 178.557 22.3926C178.947 22.1094 179.294 21.7725 179.597 21.3818C179.899 20.9912 180.139 20.5566 180.314 20.0781L182.468 20.8691C182.146 21.6406 181.716 22.3096 181.179 22.876C180.651 23.4326 180.051 23.8965 179.377 24.2676C178.703 24.6289 177.98 24.8975 177.209 25.0732C176.438 25.249 175.656 25.3369 174.865 25.3369C173.586 25.3369 172.399 25.1221 171.306 24.6924C170.212 24.2529 169.265 23.6426 168.464 22.8613C167.673 22.0703 167.053 21.1377 166.604 20.0635C166.154 18.9795 165.93 17.793 165.93 16.5039C165.93 15.2051 166.149 14.0137 166.589 12.9297C167.038 11.8457 167.658 10.9131 168.449 10.1318C169.24 9.35059 170.183 8.74512 171.276 8.31543C172.37 7.88574 173.566 7.6709 174.865 7.6709C175.686 7.6709 176.486 7.76367 177.268 7.94922C178.049 8.125 178.771 8.40332 179.436 8.78418C180.109 9.15527 180.71 9.62891 181.237 10.2051C181.774 10.7812 182.204 11.4697 182.526 12.2705ZM191.828 25H186.862V10.0439H183.786V8.08105H186.862V1.85547H191.828V8.08105H196.955V10.0439H191.828V25Z" fill="white"/>
</svg>
