<svg width="56" height="56" viewBox="0 0 56 56" fill="none" xmlns="http://www.w3.org/2000/svg">
<g filter="url(#filter0_d_2961_834)">
<circle cx="28" cy="27" r="25" fill="white"/>
</g>
<g clip-path="url(#clip0_2961_834)">
<path d="M39.6309 32.3115V15.9053C39.6309 15.2559 39.1084 14.7334 38.459 14.7334H22.4434C19.8555 14.7334 17.7559 16.833 17.7559 19.4209V35.0459C17.7559 37.6338 19.8555 39.7334 22.4434 39.7334H38.459C39.1084 39.7334 39.6309 39.2109 39.6309 38.5615V37.7803C39.6309 37.4141 39.46 37.082 39.1963 36.8672C38.9912 36.1152 38.9912 33.9717 39.1963 33.2197C39.46 33.0098 39.6309 32.6777 39.6309 32.3115ZM24.0059 21.2764C24.0059 21.1152 24.1377 20.9834 24.2988 20.9834H34.6504C34.8115 20.9834 34.9434 21.1152 34.9434 21.2764V22.2529C34.9434 22.4141 34.8115 22.5459 34.6504 22.5459H24.2988C24.1377 22.5459 24.0059 22.4141 24.0059 22.2529V21.2764ZM24.0059 24.4014C24.0059 24.2402 24.1377 24.1084 24.2988 24.1084H34.6504C34.8115 24.1084 34.9434 24.2402 34.9434 24.4014V25.3779C34.9434 25.5391 34.8115 25.6709 34.6504 25.6709H24.2988C24.1377 25.6709 24.0059 25.5391 24.0059 25.3779V24.4014ZM36.3789 36.6084H22.4434C21.5791 36.6084 20.8809 35.9102 20.8809 35.0459C20.8809 34.1865 21.584 33.4834 22.4434 33.4834H36.3789C36.2861 34.3184 36.2861 35.7734 36.3789 36.6084Z" fill="#367C93"/>
</g>
<defs>
<filter id="filter0_d_2961_834" x="0" y="0" width="56" height="56" filterUnits="userSpaceOnUse" color-interpolation-filters="sRGB">
<feFlood flood-opacity="0" result="BackgroundImageFix"/>
<feColorMatrix in="SourceAlpha" type="matrix" values="0 0 0 0 0 0 0 0 0 0 0 0 0 0 0 0 0 0 127 0" result="hardAlpha"/>
<feOffset dy="1"/>
<feGaussianBlur stdDeviation="1.5"/>
<feComposite in2="hardAlpha" operator="out"/>
<feColorMatrix type="matrix" values="0 0 0 0 0 0 0 0 0 0 0 0 0 0 0 0 0 0 0.25 0"/>
<feBlend mode="normal" in2="BackgroundImageFix" result="effect1_dropShadow_2961_834"/>
<feBlend mode="normal" in="SourceGraphic" in2="effect1_dropShadow_2961_834" result="shape"/>
</filter>
<clipPath id="clip0_2961_834">
<rect width="25" height="25" fill="white" transform="translate(16.1934 14.7334)"/>
</clipPath>
</defs>
</svg>
