<svg width="263" height="40" viewBox="0 0 263 40" fill="none" xmlns="http://www.w3.org/2000/svg">
<path d="M39.9982 5.82973V17.5H52.552V0C52.9364 0.124804 53.3174 0.243818 53.691 0.360535C56.6919 1.29795 59.2186 2.08723 59.2186 4.53809V34.1635H52.552V23.9151H38.1702L39.9982 25.4932V40C39.9982 40 33.3852 35.7811 33.3853 34.1667V5.83333L39.9982 5.82973Z" fill="#367C93"/>
<path d="M151.15 14.7458C150.433 15.6517 150.005 16.7966 150.005 18.0416C150.005 20.4971 151.67 22.5637 153.933 23.1741C153.859 23.9938 153.724 24.8347 153.527 25.6969C153.223 27.075 152.794 28.4259 152.241 29.7497C151.687 31.0735 151.026 32.3159 150.255 33.4769C149.485 34.6488 148.638 35.6579 147.716 36.5042L145.649 35.3812C145.942 34.8386 146.219 34.231 146.479 33.5583C146.74 32.8855 146.973 32.1748 147.179 31.4261C147.396 30.6666 147.586 29.8853 147.749 29.0824C147.922 28.2794 148.063 27.4873 148.172 26.7061C148.291 25.9139 148.378 25.149 148.432 24.4111C148.497 23.6624 148.53 22.968 148.53 22.3278C148.53 21.9046 148.514 21.4543 148.481 20.9769C148.449 20.4886 148.378 20.0057 148.27 19.5283C148.172 19.04 148.036 18.5735 147.863 18.1286C147.689 17.6837 147.456 17.2931 147.163 16.9567C146.881 16.6203 146.533 16.3491 146.121 16.1429C145.72 15.9367 145.242 15.8337 144.689 15.8337C144.146 15.8337 143.663 15.9584 143.24 16.208C142.817 16.4467 142.443 16.7668 142.117 17.1683C141.792 17.5589 141.51 18.0092 141.271 18.5192C141.043 19.0292 140.853 19.5554 140.701 20.098C140.56 20.6297 140.457 21.1559 140.392 21.6768C140.327 22.1976 140.294 22.6642 140.294 23.0765V32.5003H134.777V6.78417H140.278V16.4684C140.983 15.4376 141.846 14.6455 142.866 14.0921C143.897 13.5279 145.036 13.2458 146.284 13.2458C147.586 13.2458 148.72 13.4574 149.686 13.8805C150.224 14.1166 150.712 14.405 151.15 14.7458Z" fill="#367C93"/>
<path d="M158.152 23.3571V32.5H167.037V23.3571H158.152Z" fill="#367C93"/>
<path d="M178.084 20.201C178.199 20.177 178.314 20.1514 178.428 20.1241C179.383 19.9003 180.286 19.5795 181.136 19.1618C181.987 18.744 182.77 18.2293 183.486 17.6176C184.202 17.0059 184.821 16.3196 185.344 15.5587C185.881 14.7978 186.298 13.9623 186.597 13.0522C186.895 12.1271 187.044 11.1424 187.044 10.0981C187.044 8.44197 186.724 7.00222 186.082 5.77881C185.455 4.54047 184.613 3.51847 183.553 2.71281C182.494 1.89223 181.271 1.28052 179.883 0.877685C178.51 0.474854 177.071 0.273438 175.564 0.273438H158.152V12.7261H167.037V3.42895H171.714C173.833 3.42895 175.415 4.02574 176.459 5.21932C177.518 6.39798 178.048 8.02422 178.048 10.0981C178.048 11.1574 177.928 12.1346 177.69 13.0298C177.552 13.5394 177.368 14.0115 177.14 14.4461C178.01 15.3925 178.541 16.6551 178.541 18.0416C178.541 18.8104 178.377 19.5412 178.084 20.201Z" fill="#367C93"/>
<path d="M126.525 32.5003H121.008V15.8825H117.59V13.7015H121.008V6.78417H126.525V13.7015H132.222V15.8825H126.525V32.5003Z" fill="#367C93"/>
<path d="M109.353 32.4996H114.854V10.7548L111.469 5.04189H109.353V32.4996Z" fill="#367C93"/>
<path fill-rule="evenodd" clip-rule="evenodd" d="M104.747 32.4996H99.2453V30.2535C98.5943 31.1432 97.8076 31.8051 96.8853 32.2392C95.9738 32.6623 94.9702 32.8739 93.8742 32.8739C92.4419 32.8739 91.1616 32.6189 90.0331 32.1089C88.9046 31.599 87.9498 30.9045 87.1685 30.0256C86.3873 29.1359 85.7905 28.0942 85.3781 26.9006C84.9658 25.707 84.7597 24.4267 84.7597 23.0595C84.7597 21.6923 84.9658 20.4119 85.3781 19.2183C85.7905 18.0247 86.3873 16.9885 87.1685 16.1096C87.9498 15.2198 88.9046 14.52 90.0331 14.01C91.1616 13.5 92.4419 13.245 93.8742 13.245C94.6012 13.245 95.2903 13.3535 95.9413 13.5705C96.6032 13.7875 97.2054 14.0968 97.7479 14.4983C98.3013 14.8889 98.7842 15.3663 99.1965 15.9306C99.6197 16.4839 99.9506 17.1024 100.189 17.786L102.631 13.7007H104.747V32.4996ZM99.2128 23.0595C99.2128 22.5712 99.1857 22.0558 99.1314 21.5132C99.088 20.9707 99.0066 20.4336 98.8873 19.9019C98.7679 19.3702 98.5997 18.8657 98.3827 18.3882C98.1765 17.9 97.9053 17.4714 97.5689 17.1024C97.2434 16.7227 96.8473 16.4243 96.3808 16.2073C95.9142 15.9902 95.3716 15.8817 94.7531 15.8817C94.1347 15.8817 93.5975 15.9957 93.1418 16.2235C92.6861 16.4405 92.2955 16.7389 91.9699 17.1187C91.6444 17.4876 91.3732 17.9162 91.1561 18.4045C90.95 18.8928 90.7872 19.4028 90.6679 19.9345C90.5485 20.4661 90.4617 21.0033 90.4074 21.5458C90.364 22.0775 90.3423 22.582 90.3423 23.0595C90.3423 23.5369 90.364 24.0469 90.4074 24.5894C90.4617 25.1319 90.5485 25.6691 90.6679 26.2007C90.7872 26.7324 90.95 27.2424 91.1561 27.7307C91.3732 28.219 91.6444 28.653 91.9699 29.0328C92.2955 29.4017 92.6861 29.7001 93.1418 29.928C93.5975 30.145 94.1347 30.2535 94.7531 30.2535C95.3174 30.2535 95.8165 30.1395 96.2505 29.9117C96.6954 29.673 97.0806 29.3583 97.4061 28.9677C97.7425 28.577 98.0246 28.1322 98.2525 27.633C98.4804 27.1339 98.6648 26.6185 98.8059 26.0868C98.9469 25.5551 99.05 25.0289 99.1151 24.508C99.1802 23.9763 99.2128 23.4935 99.2128 23.0595Z" fill="#367C93"/>
<path fill-rule="evenodd" clip-rule="evenodd" d="M82.0085 21.9364C82.2581 21.3288 82.3829 20.6398 82.3829 19.8694C82.3829 19.0339 82.2472 18.2906 81.976 17.6395C81.7155 16.9885 81.3575 16.4188 80.9017 15.9306C80.4569 15.4314 79.9306 15.0137 79.323 14.6773C78.7153 14.3409 78.0697 14.0697 77.3861 13.8635C76.7025 13.6465 75.9972 13.4892 75.2702 13.3915C74.5432 13.2938 73.8325 13.245 73.1381 13.245C71.7058 13.245 70.382 13.4892 69.1667 13.9774C67.9514 14.4549 66.9043 15.1276 66.0254 15.9957C65.1465 16.8637 64.4575 17.9 63.9584 19.1044C63.4592 20.3088 63.2097 21.6272 63.2097 23.0595C63.2097 24.4918 63.4592 25.8101 63.9584 27.0145C64.4575 28.219 65.1465 29.2552 66.0254 30.1233C66.9043 30.9913 67.9514 31.6695 69.1667 32.1578C70.382 32.6352 71.7058 32.8739 73.1381 32.8739C74.0061 32.8739 74.8796 32.7763 75.7585 32.5809C76.6483 32.3856 77.4838 32.0872 78.265 31.6858C79.0571 31.2734 79.7624 30.758 80.3809 30.1395C81.0102 29.5102 81.504 28.7669 81.862 27.9097L79.4857 27.0308C79.2796 27.5625 79.0083 28.0454 78.6719 28.4794C78.3464 28.9134 77.9666 29.2878 77.5326 29.6024C77.0986 29.9171 76.6211 30.1612 76.1003 30.3349C75.5795 30.5085 75.0315 30.5953 74.4564 30.5953C73.5884 30.5953 72.8342 30.4542 72.1941 30.1721C71.5647 29.89 71.033 29.5102 70.599 29.0328C70.165 28.5445 69.8177 27.9803 69.5573 27.3401C69.2969 26.689 69.107 26.0054 68.9877 25.2893C69.7581 25.5388 70.5393 25.7233 71.3314 25.8427C72.1235 25.9512 72.9265 26.0054 73.7403 26.0054C74.3805 26.0054 75.0369 25.962 75.7097 25.8752C76.3933 25.7884 77.0552 25.6474 77.6954 25.452C78.3355 25.2459 78.9378 24.9855 79.502 24.6708C80.0662 24.3561 80.5599 23.9709 80.9831 23.5152C81.4171 23.0595 81.7589 22.5332 82.0085 21.9364ZM70.8431 23.9384C70.1704 23.8516 69.4977 23.7322 68.8249 23.5803C68.8141 23.4935 68.8086 23.4067 68.8086 23.3199V23.0595C68.8086 22.5603 68.8466 22.0286 68.9226 21.4644C68.9985 20.9002 69.1233 20.3414 69.2969 19.788C69.4705 19.2346 69.6875 18.7029 69.948 18.1929C70.2192 17.6829 70.5393 17.2381 70.9082 16.8583C71.288 16.4677 71.722 16.1584 72.2103 15.9306C72.7095 15.7027 73.2683 15.5888 73.8868 15.5888C74.5487 15.5888 75.1292 15.6973 75.6283 15.9143C76.1274 16.1204 76.5452 16.4134 76.8816 16.7932C77.2288 17.173 77.4892 17.6287 77.6628 18.1604C77.8364 18.6921 77.9232 19.278 77.9232 19.9182C77.9232 20.7103 77.793 21.3722 77.5326 21.9039C77.2722 22.4355 76.9141 22.8642 76.4584 23.1897C76.0135 23.5043 75.4818 23.7322 74.8633 23.8733C74.2557 24.0035 73.5938 24.0686 72.8776 24.0686C72.1941 24.0686 71.5159 24.0252 70.8431 23.9384Z" fill="#367C93"/>
<path d="M16.1198 20.2022H3.49977L13.9998 22.8723L20.0004 34.7115L23.429 19.838L26.8575 32.4258L30.8575 22.14L33.3802 21.6789V19.838H29.5793L27.429 24.9972L23.429 7.2829L19.429 26.7115L16.1198 20.2022Z" fill="#367C93"/>
<path d="M251.473 32.5004H256.99V15.8826H262.687V13.7016H256.99V6.78429H251.473V13.7016H248.055V15.8826H251.473V32.5004Z" fill="#367C93"/>
<path d="M244.28 19.2998L246.656 18.3558C246.298 17.466 245.82 16.7011 245.224 16.0609C244.638 15.4207 243.97 14.8944 243.222 14.4821C242.484 14.0589 241.681 13.7497 240.813 13.5544C239.945 13.3482 239.055 13.2451 238.143 13.2451C236.7 13.2451 235.371 13.4838 234.156 13.9613C232.941 14.4387 231.893 15.1114 231.015 15.9795C230.136 16.8476 229.447 17.8838 228.948 19.0882C228.459 20.2927 228.215 21.6164 228.215 23.0596C228.215 24.4919 228.465 25.8102 228.964 27.0147C229.463 28.2082 230.152 29.2445 231.031 30.1234C231.921 30.9914 232.973 31.6696 234.188 32.1579C235.404 32.6353 236.722 32.874 238.143 32.874C239.022 32.874 239.89 32.7764 240.748 32.5811C241.605 32.3857 242.408 32.0874 243.157 31.6859C243.905 31.2736 244.573 30.7581 245.158 30.1397C245.755 29.5103 246.233 28.767 246.591 27.9098L244.198 27.0309C244.003 27.5626 243.737 28.0455 243.401 28.4795C243.064 28.9135 242.679 29.2879 242.245 29.6025C241.811 29.9172 241.334 30.1614 240.813 30.335C240.292 30.5086 239.744 30.5954 239.169 30.5954C238.453 30.5954 237.818 30.4923 237.265 30.2861C236.722 30.08 236.25 29.7979 235.849 29.4398C235.458 29.0817 235.132 28.664 234.872 28.1865C234.612 27.6982 234.4 27.1774 234.237 26.624C234.085 26.0598 233.977 25.4739 233.912 24.8662C233.847 24.2586 233.814 23.6564 233.814 23.0596C233.814 22.5062 233.852 21.9365 233.928 21.3506C234.004 20.7538 234.129 20.1787 234.302 19.6253C234.476 19.0719 234.698 18.5511 234.97 18.0628C235.252 17.5746 235.588 17.1459 235.979 16.777C236.38 16.4081 236.841 16.1206 237.362 15.9144C237.894 15.6974 238.496 15.5889 239.169 15.5889C240.417 15.5889 241.486 15.909 242.375 16.5492C243.265 17.1894 243.9 18.1062 244.28 19.2998Z" fill="#367C93"/>
<path fill-rule="evenodd" clip-rule="evenodd" d="M224.698 32.4997H219.197V30.2536C218.546 31.1433 217.759 31.8052 216.837 32.2393C215.926 32.6624 214.922 32.874 213.826 32.874C212.394 32.874 211.113 32.619 209.985 32.1091C208.856 31.5991 207.902 30.9046 207.12 30.0257C206.339 29.136 205.742 28.0943 205.33 26.9007C204.918 25.7071 204.712 24.4268 204.712 23.0596C204.712 21.6924 204.918 20.412 205.33 19.2184C205.742 18.0249 206.339 16.9886 207.12 16.1097C207.902 15.2199 208.856 14.5201 209.985 14.0101C211.113 13.5001 212.394 13.2451 213.826 13.2451C214.553 13.2451 215.242 13.3536 215.893 13.5706C216.555 13.7877 217.157 14.0969 217.7 14.4984C218.253 14.889 218.736 15.3664 219.148 15.9307C219.572 16.4841 219.902 17.1025 220.141 17.7861L222.583 13.7009H224.698V32.4997ZM219.165 23.0596C219.165 22.5713 219.137 22.0559 219.083 21.5134C219.04 20.9708 218.958 20.4337 218.839 19.902C218.72 19.3703 218.552 18.8658 218.335 18.3884C218.128 17.9001 217.857 17.4715 217.521 17.1025C217.195 16.7228 216.799 16.4244 216.333 16.2074C215.866 15.9903 215.323 15.8818 214.705 15.8818C214.087 15.8818 213.549 15.9958 213.094 16.2236C212.638 16.4407 212.247 16.739 211.922 17.1188C211.596 17.4877 211.325 17.9163 211.108 18.4046C210.902 18.8929 210.739 19.4029 210.62 19.9346C210.5 20.4663 210.414 21.0034 210.359 21.5459C210.316 22.0776 210.294 22.5821 210.294 23.0596C210.294 23.537 210.316 24.047 210.359 24.5895C210.414 25.1321 210.5 25.6692 210.62 26.2009C210.739 26.7325 210.902 27.2425 211.108 27.7308C211.325 28.2191 211.596 28.6531 211.922 29.0329C212.247 29.4018 212.638 29.7002 213.094 29.9281C213.549 30.1451 214.087 30.2536 214.705 30.2536C215.269 30.2536 215.768 30.1397 216.202 29.9118C216.647 29.6731 217.032 29.3584 217.358 28.9678C217.694 28.5772 217.976 28.1323 218.204 27.6331C218.432 27.134 218.617 26.6186 218.758 26.0869C218.899 25.5552 219.002 25.029 219.067 24.5081C219.132 23.9765 219.165 23.4936 219.165 23.0596Z" fill="#367C93"/>
<path d="M200.758 20.488L203.85 15.361C203.611 14.9704 203.28 14.6394 202.857 14.3682C202.434 14.0969 201.973 13.8799 201.474 13.7171C200.975 13.5435 200.465 13.4242 199.944 13.3591C199.423 13.2831 198.951 13.2451 198.528 13.2451C197.714 13.2451 196.982 13.3645 196.331 13.6032C195.69 13.8419 195.115 14.1783 194.605 14.6123C194.095 15.0355 193.645 15.5455 193.254 16.1423C192.864 16.7282 192.517 17.3738 192.213 18.0791L189.983 13.7009H187.867V32.4997H193.385V23.0759C193.385 22.7178 193.401 22.2946 193.433 21.8063C193.466 21.3072 193.526 20.7918 193.612 20.2601C193.71 19.7176 193.84 19.1859 194.003 18.665C194.177 18.1334 194.394 17.6614 194.654 17.249C194.915 16.8259 195.229 16.4841 195.598 16.2236C195.978 15.9632 196.423 15.833 196.933 15.833C197.486 15.833 197.974 15.9958 198.398 16.3213C198.821 16.636 199.184 17.032 199.488 17.5094C199.792 17.976 200.047 18.4806 200.253 19.0231C200.459 19.5657 200.627 20.0539 200.758 20.488Z" fill="#367C93"/>
<path d="M165.03 14.4046H172.947C175.018 14.4046 176.697 16.0835 176.697 18.1546C176.697 20.2256 175.018 21.9046 172.947 21.9046H165.03V14.4046Z" fill="#367C93"/>
<path fill-rule="evenodd" clip-rule="evenodd" d="M155.993 21.9046H163.434L163.434 14.4045L155.993 14.4046C153.922 14.4046 152.243 16.0835 152.243 18.1546C152.243 20.2256 153.922 21.9046 155.993 21.9046ZM157.401 15.9924C156.446 15.9924 155.52 16.0869 154.842 16.5885C154.11 17.1301 153.83 18.0075 153.83 19.1424H155.13C155.13 18.1939 155.361 17.8214 155.615 17.6338C155.923 17.4062 156.457 17.2924 157.401 17.2924H161.98V15.9924H157.401Z" fill="#367C93"/>
<path d="M4.57143 20.426C4.57143 21.6884 3.54808 22.7117 2.28571 22.7117C1.02335 22.7117 0 21.6884 0 20.426C0 19.1636 1.02335 18.1403 2.28571 18.1403C3.54808 18.1403 4.57143 19.1636 4.57143 20.426Z" fill="#367C93"/>
</svg>
