<svg width="21" height="20" viewBox="0 0 21 20" fill="none" xmlns="http://www.w3.org/2000/svg">
<circle cx="9" cy="12" r="6" fill="#80D0C7" fill-opacity="0.5"/>
<path d="M19.5 8.31002V9.00002C19.4991 10.6173 18.9754 12.191 18.007 13.4864C17.0386 14.7818 15.6775 15.7294 14.1265 16.1879C12.5756 16.6465 10.9179 16.5914 9.40085 16.031C7.88376 15.4705 6.58849 14.4346 5.70822 13.0778C4.82795 11.721 4.40984 10.1161 4.51626 8.50226C4.62267 6.88844 5.24791 5.35227 6.29871 4.12283C7.34951 2.89338 8.76959 2.03656 10.3471 1.68013C11.9247 1.3237 13.5752 1.48677 15.0525 2.14502" stroke="#125064" stroke-width="1.5" stroke-linecap="round" stroke-linejoin="round"/>
<path d="M19.5 3L12 10.5075L9.75 8.2575" stroke="#125064" stroke-width="1.5" stroke-linecap="round" stroke-linejoin="round"/>
</svg>
