<svg width="263" height="41" viewBox="0 0 263 41" fill="none" xmlns="http://www.w3.org/2000/svg">
<path fill-rule="evenodd" clip-rule="evenodd" d="M39.9984 5.95742V17.6277H52.5522V0.127686C52.9366 0.252489 53.3176 0.371503 53.6912 0.488221C56.6922 1.42564 59.2189 2.21491 59.2189 4.66578V34.2912H52.5522V24.0428H38.1705L39.9984 25.6208V40.1277C39.9984 40.1277 33.3855 35.9088 33.3855 34.2943V5.96102L39.9984 5.95742ZM151.15 14.8734C150.433 15.7793 150.005 16.9243 150.005 18.1693C150.005 20.6248 151.67 22.6914 153.933 23.3018C153.859 24.1215 153.724 24.9624 153.527 25.8246C153.223 27.2027 152.794 28.5536 152.241 29.8774C151.688 31.2011 151.026 32.4435 150.255 33.6046C149.485 34.7764 148.639 35.7856 147.716 36.6319L145.649 35.5089C145.942 34.9663 146.219 34.3587 146.479 33.686C146.74 33.0132 146.973 32.3025 147.179 31.5538C147.396 30.7942 147.586 30.013 147.749 29.21C147.923 28.4071 148.064 27.615 148.172 26.8337C148.291 26.0416 148.378 25.2767 148.433 24.5388C148.498 23.7901 148.53 23.0957 148.53 22.4555C148.53 22.0323 148.514 21.582 148.481 21.1046C148.449 20.6163 148.378 20.1334 148.27 19.656C148.172 19.1677 148.036 18.7011 147.863 18.2563C147.689 17.8114 147.456 17.4208 147.163 17.0844C146.881 16.748 146.534 16.4767 146.121 16.2706C145.72 16.0644 145.242 15.9613 144.689 15.9613C144.146 15.9613 143.664 16.0861 143.24 16.3357C142.817 16.5744 142.443 16.8945 142.117 17.296C141.792 17.6866 141.51 18.1369 141.271 18.6469C141.043 19.1569 140.853 19.6831 140.701 20.2257C140.56 20.7573 140.457 21.2836 140.392 21.8044C140.327 22.3253 140.294 22.7919 140.294 23.2042V32.628H134.777V6.91186H140.278V16.5961C140.984 15.5653 141.846 14.7732 142.866 14.2198C143.897 13.6556 145.036 13.3734 146.284 13.3734C147.586 13.3734 148.72 13.585 149.686 14.0082C150.224 14.2443 150.713 14.5327 151.15 14.8734ZM158.153 23.4847V32.6277H167.037V23.4847H158.153ZM178.084 20.3287C178.199 20.3047 178.314 20.2791 178.429 20.2518C179.383 20.028 180.286 19.7072 181.136 19.2895C181.987 18.8717 182.77 18.357 183.486 17.7453C184.202 17.1336 184.822 16.4473 185.344 15.6864C185.881 14.9255 186.299 14.09 186.597 13.1798C186.895 12.2548 187.045 11.2701 187.045 10.2257C187.045 8.56966 186.724 7.12991 186.082 5.90649C185.456 4.66816 184.613 3.64616 183.553 2.84049C182.494 2.01991 181.271 1.4082 179.883 1.00537C178.511 0.602539 177.071 0.401123 175.564 0.401123H158.153V12.8538H167.037V3.55664H171.715C173.833 3.55664 175.415 4.15343 176.459 5.347C177.518 6.52566 178.048 8.15191 178.048 10.2257C178.048 11.285 177.929 12.2623 177.69 13.1575C177.552 13.6671 177.369 14.1392 177.14 14.5738C178.01 15.5202 178.541 16.7827 178.541 18.1693C178.541 18.9381 178.378 19.6689 178.084 20.3287ZM126.525 32.628H121.008V16.0102H117.59V13.8292H121.008V6.91186H126.525V13.8292H132.222V16.0102H126.525V32.628ZM109.353 32.6273H114.855V10.8825L111.469 5.16957H109.353V32.6273ZM104.747 32.6273H99.2456V30.3812C98.5945 31.2709 97.8078 31.9328 96.8855 32.3668C95.9741 32.79 94.9704 33.0016 93.8745 33.0016C92.4422 33.0016 91.1618 32.7466 90.0333 32.2366C88.9049 31.7266 87.95 31.0322 87.1687 30.1533C86.3875 29.2635 85.7907 28.2219 85.3784 27.0283C84.966 25.8347 84.7599 24.5543 84.7599 23.1871C84.7599 21.82 84.966 20.5396 85.3784 19.346C85.7907 18.1524 86.3875 17.1162 87.1687 16.2373C87.95 15.3475 88.9049 14.6477 90.0333 14.1377C91.1618 13.6277 92.4422 13.3727 93.8745 13.3727C94.6015 13.3727 95.2905 13.4812 95.9415 13.6982C96.6034 13.9152 97.2056 14.2245 97.7482 14.626C98.3016 15.0166 98.7844 15.494 99.1967 16.0582C99.6199 16.6116 99.9509 17.2301 100.19 17.9137L102.631 13.8284H104.747V32.6273ZM99.213 23.1871C99.213 22.6989 99.1859 22.1835 99.1316 21.6409C99.0882 21.0984 99.0068 20.5613 98.8875 20.0296C98.7681 19.4979 98.5999 18.9934 98.3829 18.5159C98.1768 18.0276 97.9055 17.599 97.5691 17.2301C97.2436 16.8503 96.8476 16.5519 96.381 16.3349C95.9144 16.1179 95.3719 16.0094 94.7534 16.0094C94.1349 16.0094 93.5978 16.1233 93.142 16.3512C92.6863 16.5682 92.2957 16.8666 91.9702 17.2464C91.6447 17.6153 91.3734 18.0439 91.1564 18.5322C90.9502 19.0205 90.7874 19.5305 90.6681 20.0621C90.5487 20.5938 90.4619 21.1309 90.4077 21.6735C90.3643 22.2052 90.3426 22.7097 90.3426 23.1871C90.3426 23.6646 90.3643 24.1746 90.4077 24.7171C90.4619 25.2596 90.5487 25.7967 90.6681 26.3284C90.7874 26.8601 90.9502 27.3701 91.1564 27.8584C91.3734 28.3467 91.6447 28.7807 91.9702 29.1605C92.2957 29.5294 92.6863 29.8278 93.142 30.0556C93.5978 30.2727 94.1349 30.3812 94.7534 30.3812C95.3176 30.3812 95.8167 30.2672 96.2508 30.0394C96.6956 29.8006 97.0808 29.486 97.4064 29.0954C97.7427 28.7047 98.0249 28.2598 98.2527 27.7607C98.4806 27.2616 98.665 26.7462 98.8061 26.2145C98.9472 25.6828 99.0502 25.1565 99.1154 24.6357C99.1805 24.104 99.213 23.6212 99.213 23.1871ZM70.8434 24.0661C70.1706 23.9792 69.4979 23.8599 68.8251 23.708C68.8143 23.6212 68.8089 23.5344 68.8089 23.4476V23.1871C68.8089 22.688 68.8468 22.1563 68.9228 21.5921C68.9988 21.0279 69.1235 20.469 69.2971 19.9157C69.4708 19.3623 69.6878 18.8306 69.9482 18.3206C70.2195 17.8106 70.5396 17.3658 70.9085 16.986C71.2883 16.5954 71.7223 16.2861 72.2106 16.0582C72.7097 15.8304 73.2685 15.7164 73.887 15.7164C74.5489 15.7164 75.1294 15.825 75.6285 16.042C76.1277 16.2481 76.5454 16.5411 76.8818 16.9209C77.229 17.3006 77.4894 17.7564 77.663 18.2881C77.8366 18.8197 77.9235 19.4057 77.9235 20.0459C77.9235 20.838 77.7932 21.4999 77.5328 22.0315C77.2724 22.5632 76.9143 22.9918 76.4586 23.3174C76.0137 23.632 75.482 23.8599 74.8636 24.001C74.2559 24.1312 73.594 24.1963 72.8779 24.1963C72.1943 24.1963 71.5161 24.1529 70.8434 24.0661ZM82.0087 22.0641C82.2583 21.4565 82.3831 20.7674 82.3831 19.997C82.3831 19.1615 82.2475 18.4183 81.9762 17.7672C81.7158 17.1162 81.3577 16.5465 80.902 16.0582C80.4571 15.5591 79.9308 15.1414 79.3232 14.805C78.7156 14.4686 78.0699 14.1973 77.3863 13.9912C76.7027 13.7742 75.9975 13.6168 75.2705 13.5192C74.5435 13.4215 73.8327 13.3727 73.1383 13.3727C71.706 13.3727 70.3822 13.6168 69.1669 14.1051C67.9517 14.5825 66.9046 15.2553 66.0257 16.1233C65.1468 16.9914 64.4577 18.0276 63.9586 19.2321C63.4595 20.4365 63.2099 21.7549 63.2099 23.1871C63.2099 24.6194 63.4595 25.9378 63.9586 27.1422C64.4577 28.3467 65.1468 29.3829 66.0257 30.2509C66.9046 31.119 67.9517 31.7972 69.1669 32.2855C70.3822 32.7629 71.706 33.0016 73.1383 33.0016C74.0063 33.0016 74.8798 32.9039 75.7587 32.7086C76.6485 32.5133 77.484 32.2149 78.2653 31.8134C79.0574 31.4011 79.7626 30.8857 80.3811 30.2672C81.0105 29.6379 81.5042 28.8946 81.8623 28.0374L79.486 27.1585C79.2798 27.6902 79.0085 28.173 78.6721 28.6071C78.3466 29.0411 77.9669 29.4154 77.5328 29.7301C77.0988 30.0448 76.6214 30.2889 76.1005 30.4625C75.5797 30.6362 75.0317 30.723 74.4566 30.723C73.5886 30.723 72.8345 30.5819 72.1943 30.2998C71.5649 30.0177 71.0333 29.6379 70.5992 29.1605C70.1652 28.6722 69.818 28.1079 69.5576 27.4677C69.2971 26.8167 69.1073 26.1331 68.9879 25.417C69.7583 25.6665 70.5396 25.851 71.3316 25.9704C72.1238 26.0789 72.9267 26.1331 73.7405 26.1331C74.3807 26.1331 75.0372 26.0897 75.7099 26.0029C76.3935 25.9161 77.0554 25.775 77.6956 25.5797C78.3358 25.3736 78.938 25.1131 79.5022 24.7985C80.0665 24.4838 80.5602 24.0986 80.9833 23.6429C81.4174 23.1871 81.7592 22.6609 82.0087 22.0641ZM16.12 20.3299H3.5L14 22.9999L20.0006 34.8392L23.4292 19.9657L26.8578 32.5534L30.8578 22.2677L33.3805 21.8066V19.9657H29.5795L27.4292 25.1249L23.4292 7.41059L19.4292 26.8392L16.12 20.3299ZM251.473 32.6281H256.991V16.0103H262.687V13.8293H256.991V6.91197H251.473V13.8293H248.055V16.0103H251.473V32.6281ZM244.28 19.4275L246.656 18.4835C246.298 17.5937 245.821 16.8288 245.224 16.1886C244.638 15.5484 243.971 15.0221 243.222 14.6098C242.484 14.1866 241.681 13.8774 240.813 13.6821C239.945 13.4759 239.055 13.3728 238.144 13.3728C236.701 13.3728 235.371 13.6115 234.156 14.089C232.941 14.5664 231.894 15.2391 231.015 16.1072C230.136 16.9752 229.447 18.0115 228.948 19.2159C228.459 20.4203 228.215 21.7441 228.215 23.1873C228.215 24.6196 228.465 25.9379 228.964 27.1423C229.463 28.3359 230.152 29.3722 231.031 30.2511C231.921 31.1191 232.973 31.7973 234.189 32.2856C235.404 32.763 236.722 33.0017 238.144 33.0017C239.023 33.0017 239.891 32.9041 240.748 32.7087C241.605 32.5134 242.408 32.215 243.157 31.8136C243.905 31.4012 244.573 30.8858 245.159 30.2673C245.755 29.638 246.233 28.8947 246.591 28.0375L244.198 27.1586C244.003 27.6903 243.737 28.1732 243.401 28.6072C243.065 29.0412 242.679 29.4156 242.245 29.7302C241.811 30.0449 241.334 30.289 240.813 30.4627C240.292 30.6363 239.744 30.7231 239.169 30.7231C238.453 30.7231 237.818 30.62 237.265 30.4138C236.722 30.2077 236.25 29.9255 235.849 29.5675C235.458 29.2094 235.133 28.7916 234.872 28.3142C234.612 27.8259 234.4 27.3051 234.237 26.7517C234.086 26.1875 233.977 25.6015 233.912 24.9939C233.847 24.3863 233.814 23.784 233.814 23.1873C233.814 22.6339 233.852 22.0642 233.928 21.4783C234.004 20.8815 234.129 20.3064 234.303 19.753C234.476 19.1996 234.699 18.6788 234.97 18.1905C235.252 17.7022 235.588 17.2736 235.979 16.9047C236.38 16.5358 236.842 16.2482 237.362 16.0421C237.894 15.8251 238.496 15.7166 239.169 15.7166C240.417 15.7166 241.486 16.0367 242.375 16.6768C243.265 17.317 243.9 18.2339 244.28 19.4275ZM224.699 32.6274H219.197V30.3813C218.546 31.271 217.76 31.9329 216.837 32.367C215.926 32.7901 214.922 33.0017 213.826 33.0017C212.394 33.0017 211.114 32.7467 209.985 32.2367C208.857 31.7268 207.902 31.0323 207.121 30.1534C206.339 29.2637 205.743 28.222 205.33 27.0284C204.918 25.8348 204.712 24.5544 204.712 23.1873C204.712 21.8201 204.918 20.5397 205.33 19.3461C205.743 18.1525 206.339 17.1163 207.121 16.2374C207.902 15.3476 208.857 14.6478 209.985 14.1378C211.114 13.6278 212.394 13.3728 213.826 13.3728C214.553 13.3728 215.242 13.4813 215.893 13.6983C216.555 13.9153 217.157 14.2246 217.7 14.6261C218.253 15.0167 218.736 15.4941 219.149 16.0584C219.572 16.6117 219.903 17.2302 220.141 17.9138L222.583 13.8285H224.699V32.6274ZM219.165 23.1873C219.165 22.699 219.138 22.1836 219.083 21.641C219.04 21.0985 218.959 20.5614 218.839 20.0297C218.72 19.498 218.552 18.9935 218.335 18.516C218.129 18.0278 217.857 17.5992 217.521 17.2302C217.195 16.8505 216.799 16.5521 216.333 16.335C215.866 16.118 215.324 16.0095 214.705 16.0095C214.087 16.0095 213.55 16.1235 213.094 16.3513C212.638 16.5683 212.248 16.8667 211.922 17.2465C211.596 17.6154 211.325 18.044 211.108 18.5323C210.902 19.0206 210.739 19.5306 210.62 20.0623C210.501 20.5939 210.414 21.1311 210.36 21.6736C210.316 22.2053 210.294 22.7098 210.294 23.1873C210.294 23.6647 210.316 24.1747 210.36 24.7172C210.414 25.2597 210.501 25.7969 210.62 26.3285C210.739 26.8602 210.902 27.3702 211.108 27.8585C211.325 28.3468 211.596 28.7808 211.922 29.1606C212.248 29.5295 212.638 29.8279 213.094 30.0558C213.55 30.2728 214.087 30.3813 214.705 30.3813C215.269 30.3813 215.769 30.2673 216.203 30.0395C216.647 29.8008 217.033 29.4861 217.358 29.0955C217.695 28.7048 217.977 28.26 218.205 27.7608C218.432 27.2617 218.617 26.7463 218.758 26.2146C218.899 25.6829 219.002 25.1567 219.067 24.6358C219.132 24.1041 219.165 23.6213 219.165 23.1873ZM200.758 20.6156L203.85 15.4887C203.612 15.0981 203.281 14.7671 202.858 14.4959C202.434 14.2246 201.973 14.0076 201.474 13.8448C200.975 13.6712 200.465 13.5518 199.944 13.4867C199.423 13.4108 198.951 13.3728 198.528 13.3728C197.714 13.3728 196.982 13.4922 196.331 13.7309C195.691 13.9696 195.116 14.306 194.606 14.74C194.096 15.1632 193.645 15.6732 193.255 16.2699C192.864 16.8559 192.517 17.5015 192.213 18.2068L189.983 13.8285H187.867V32.6274H193.385V23.2035C193.385 22.8455 193.401 22.4223 193.434 21.934C193.466 21.4349 193.526 20.9195 193.613 20.3878C193.71 19.8452 193.841 19.3136 194.003 18.7927C194.177 18.261 194.394 17.789 194.654 17.3767C194.915 16.9535 195.229 16.6117 195.598 16.3513C195.978 16.0909 196.423 15.9607 196.933 15.9607C197.486 15.9607 197.975 16.1235 198.398 16.449C198.821 16.7637 199.185 17.1597 199.488 17.6371C199.792 18.1037 200.047 18.6083 200.253 19.1508C200.46 19.6933 200.628 20.1816 200.758 20.6156Z" fill="white"/>
<path d="M165.031 14.5322H172.947C175.018 14.5322 176.697 16.2112 176.697 18.2822C176.697 20.3533 175.018 22.0322 172.947 22.0322H165.031V14.5322Z" fill="white"/>
<path fill-rule="evenodd" clip-rule="evenodd" d="M155.994 22.0322H163.434L163.434 14.5322L155.994 14.5322C153.923 14.5322 152.244 16.2112 152.244 18.2822C152.244 20.3533 153.923 22.0322 155.994 22.0322ZM157.401 16.1201C156.446 16.1201 155.521 16.2146 154.842 16.7162C154.11 17.2578 153.83 18.1352 153.83 19.2701H155.13C155.13 18.3216 155.362 17.949 155.615 17.7614C155.923 17.5339 156.458 17.4201 157.401 17.4201H161.98V16.1201H157.401Z" fill="white"/>
<path d="M4.07143 20.5538C4.07143 21.54 3.27194 22.3395 2.28571 22.3395C1.29949 22.3395 0.5 21.54 0.5 20.5538C0.5 19.5676 1.29949 18.7681 2.28571 18.7681C3.27194 18.7681 4.07143 19.5676 4.07143 20.5538Z" stroke="white"/>
</svg>
