<svg width="267" height="215" viewBox="0 0 267 215" fill="none" xmlns="http://www.w3.org/2000/svg">
<g opacity="0.2">
<rect x="92.8036" y="45.6772" width="98.4881" height="123.614" rx="8" fill="white"/>
<path fill-rule="evenodd" clip-rule="evenodd" d="M205.697 20.8637C187.879 7.749 165.868 0 142.048 0C82.6857 0 34.5634 48.1223 34.5634 107.484C34.5634 166.846 82.6857 214.969 142.048 214.969C201.41 214.969 249.532 166.846 249.532 107.484C249.532 89.1424 244.938 71.8736 236.837 56.7658H213.697C209.279 56.7658 205.697 53.1841 205.697 48.7658V20.8637Z" fill="#F1F1F1"/>
<rect x="92.5679" y="43.9133" width="98.4881" height="123.614" rx="8" fill="white"/>
<rect x="103.538" y="56.7659" width="45.0097" height="9.59894" rx="4.79947" fill="#021823"/>
<rect x="228.258" y="36.0784" width="38.7387" height="9.59894" rx="4.79947" fill="#D5D5D5"/>
<rect x="213.86" y="36.0784" width="9.59894" height="9.59894" rx="4.79947" fill="#D5D5D5"/>
<rect x="228.258" y="147.029" width="9.59894" height="9.59894" rx="4.79947" fill="#046493"/>
<rect x="103.538" y="78.8433" width="76.5473" height="9.59894" rx="4.79947" fill="#D5D5D5"/>
<rect x="103.538" y="100.921" width="76.5473" height="9.59894" rx="4.79947" fill="#D5D5D5"/>
<rect x="103.538" y="122.999" width="76.5473" height="9.59894" rx="4.79947" fill="#D5D5D5"/>
<rect x="103.538" y="145.076" width="76.5473" height="9.59894" rx="4.79947" fill="#D5D5D5"/>
<path d="M45.5024 167.527C44.7954 167.527 44.2197 166.953 44.2197 166.248C44.2197 159.395 42.7349 157.906 35.8461 157.906C35.1391 157.906 34.5634 157.331 34.5634 156.628C34.5634 155.923 35.1391 155.349 35.8461 155.349C42.7349 155.349 44.2197 153.87 44.2197 147.007C44.2197 146.302 44.7954 145.729 45.5024 145.729C46.2095 145.729 46.7853 146.302 46.7853 147.007C46.7853 153.86 48.2701 155.349 55.1588 155.349C55.8659 155.349 56.4418 155.923 56.4418 156.628C56.4418 157.331 55.8659 157.906 55.1588 157.906C48.2701 157.906 46.7853 159.385 46.7853 166.248C46.7853 166.953 46.2095 167.527 45.5024 167.527ZM42.9571 156.628C44.0681 157.222 44.8964 158.056 45.5024 159.164C46.0984 158.056 46.9367 157.232 48.0479 156.628C46.9367 156.033 46.1085 155.199 45.5024 154.091C44.9065 155.199 44.0681 156.023 42.9571 156.628Z" fill="#046493"/>
<path d="M169.197 148.324L178.136 139.617L228.704 191.524C231.109 193.992 231.057 197.942 228.589 200.347C226.12 202.752 222.17 202.7 219.766 200.232L169.197 148.324Z" fill="#367C93"/>
<path d="M216.695 197.08L225.633 188.372L228.704 191.524C231.109 193.992 231.057 197.943 228.589 200.347C226.121 202.752 222.171 202.7 219.766 200.232L216.695 197.08Z" fill="#7D9FAF"/>
<path d="M217.965 198.383L226.903 189.675L228.704 191.524C231.109 193.992 231.057 197.943 228.589 200.347C226.121 202.752 222.17 202.7 219.766 200.232L217.965 198.383Z" fill="#17394A"/>
<path opacity="0.64" d="M180.373 159.798L189.318 151.084L189.91 151.692L182.868 162.359L180.373 159.798Z" fill="#212121"/>
<path d="M170.412 151.907L178.71 160.204C178.912 160.397 179.181 160.505 179.46 160.505C179.739 160.505 180.008 160.397 180.21 160.204L189.618 150.797C189.81 150.595 189.918 150.326 189.918 150.047C189.918 149.767 189.81 149.499 189.618 149.296L181.35 140.969L170.412 151.907Z" fill="#E0E0E0"/>
<path d="M182.663 142.282L183.721 143.34L174.831 156.326L170.923 152.417L182.663 142.282Z" fill="#BDBDBD"/>
<path d="M148.929 78.8433C140.884 78.8433 133.02 81.2288 126.331 85.6982C119.643 90.1676 114.429 96.5201 111.351 103.952C108.272 111.385 107.467 119.563 109.036 127.453C110.605 135.343 114.479 142.591 120.168 148.279C125.856 153.968 133.104 157.842 140.994 159.411C148.884 160.98 157.062 160.175 164.495 157.096C171.927 154.018 178.279 148.804 182.749 142.115C187.218 135.427 189.604 127.563 189.604 119.518C189.602 108.731 185.316 98.386 177.689 90.7584C170.061 83.1308 159.716 78.8449 148.929 78.8433ZM148.929 151.785C142.547 151.785 136.309 149.893 131.002 146.347C125.696 142.802 121.56 137.762 119.118 131.866C116.676 125.97 116.037 119.482 117.282 113.223C118.527 106.964 121.6 101.214 126.113 96.7014C130.625 92.1887 136.375 89.1156 142.634 87.8705C148.893 86.6255 155.381 87.2645 161.277 89.7067C167.173 92.149 172.213 96.2847 175.758 101.591C179.304 106.897 181.196 113.136 181.196 119.518C181.196 128.076 177.797 136.283 171.745 142.334C165.694 148.386 157.487 151.785 148.929 151.785Z" fill="#367C93"/>
<path d="M127.511 98.1C122.845 102.766 120.016 107.532 121.265 108.718C122.514 109.905 127.236 107.119 131.883 102.472C136.531 97.8252 139.379 93.0407 138.13 91.8539C136.88 90.6671 132.177 93.4342 127.511 98.1Z" fill="#367C93"/>
<rect x="134.64" y="127.632" width="33.3786" height="6.96963" rx="3.48481" transform="rotate(-44.8503 134.64 127.632)" fill="#80D0C7"/>
<rect x="139.592" y="104.067" width="33.3786" height="6.96963" rx="3.48481" transform="rotate(45 139.592 104.067)" fill="#80D0C7"/>
<path d="M11.9619 103.229C44.2013 86.5524 58.1152 72.5459 59.7941 60.3578C61.8928 45.1226 43.0799 45.5721 43.002 54.9926C42.9516 61.1002 51.438 67.9652 61.444 60.0576C71.4501 52.15 79.94 40.3969 86.4996 21.7349" stroke="#046493" stroke-width="1.5" stroke-linecap="round"/>
</g>
</svg>
