<svg width="191" height="160" viewBox="0 0 191 160" fill="none" xmlns="http://www.w3.org/2000/svg">
<path d="M70.6794 8.41407L79.6851 0.0012207L88.6099 8.4997L99.4407 2.57672L105.957 13.0125L117.93 9.95135L121.629 21.6688L133.991 21.6608L134.64 33.9242L146.617 36.9706L144.175 49.0079L155.013 54.9175L149.634 65.9741L158.652 74.3749L150.674 83.7564L157.305 94.1199L147.229 101.236L151.057 112.912L139.515 117.315L140.3 129.571L128.019 130.984L125.71 143.049L113.461 141.383L108.204 152.499L96.7576 147.86L88.8834 157.327L78.9564 150.008L68.9594 157.232L61.1768 147.69L49.6846 152.218L44.5366 141.053L32.2727 142.601L30.0812 130.514L17.8146 128.983L18.7185 116.736L7.21961 112.222L11.1621 100.583L1.15432 93.3707L7.88634 83.0714L0 73.6136L9.0986 65.2997L3.828 54.1923L14.7221 48.3871L12.3972 36.3258L24.4039 33.3944L25.1717 21.139L37.5339 21.2648L41.3471 9.58341L53.289 12.7596L59.9066 2.38674L70.6794 8.41407Z" fill="#80D0C7"/>
<path opacity="0.4" d="M152.021 86.4335L159.999 77.052L150.981 68.6512L156.361 57.5946L145.524 51.685L147.966 39.6464L135.989 36.6L135.339 24.3366L122.976 24.3446L119.277 12.6271L107.304 15.6883L100.788 5.2525L89.9569 11.1755L81.032 2.677L72.025 11.0898L61.2535 5.0625L54.636 15.4354L42.694 12.2592L38.8808 23.9406L26.5186 23.8135L25.7508 36.0702L13.7455 39.0015L16.0703 51.0629L5.17493 56.8681L10.4455 67.9755L1.34692 76.2894L9.23326 85.7458L2.50125 96.0464L12.5077 103.258L8.56653 114.898L20.064 119.411L19.1602 131.658L31.4268 133.188L33.6183 145.274L45.8822 143.727L51.0302 154.892L62.5223 150.363L70.3036 159.905L80.3006 152.681L90.2276 160L98.1018 150.533L109.549 155.172L114.807 144.056L127.056 145.721L129.364 133.657L141.646 132.244L140.862 119.989L152.402 115.585L148.574 103.909L158.651 96.7943L152.021 86.4335ZM149.539 95.0256L140.64 101.308L144.02 111.621L133.828 115.508L134.52 126.333L123.673 127.581L121.634 138.236L110.817 136.766L106.174 146.582L96.0639 142.486L89.1096 150.846L80.3424 144.381L71.5131 150.763L64.6397 142.334L54.4905 146.334L49.9432 136.474L39.1125 137.84L37.1769 127.166L26.3435 125.814L27.1422 114.997L16.9863 111.012L20.4681 100.731L11.6308 94.362L17.5762 85.2655L10.6112 76.9129L18.647 69.5717L13.992 59.7607L23.6132 54.6338L21.5605 43.9826L32.1636 41.3937L32.8411 30.5686L43.7581 30.681L47.1254 20.3643L57.6733 23.1699L63.5177 14.0092L73.0312 19.3328L80.9862 11.9033L88.8685 19.4077L98.4318 14.1764L104.187 23.3934L114.762 20.6894L118.028 31.0382L128.947 31.0315L129.519 41.8633L140.097 44.5526L137.94 55.185L147.512 60.4029L142.761 70.167L150.725 77.5872L143.68 85.8702L149.539 95.0256Z" fill="url(#paint0_linear_901_2)"/>
<path opacity="0.4" d="M70.6794 8.41407L79.6851 0.0012207L88.6099 8.4997L99.4407 2.57672L105.957 13.0125L117.93 9.95135L121.629 21.6688L133.991 21.6608L134.64 33.9242L146.617 36.9706L144.175 49.0079L155.013 54.9175L149.634 65.9741L158.652 74.3749L150.674 83.7564L157.305 94.1199L147.229 101.236L151.057 112.912L139.515 117.315L140.3 129.571L128.019 130.984L125.71 143.049L113.461 141.383L108.204 152.499L96.7576 147.86L88.8834 157.327L78.9564 150.008L68.9594 157.232L61.1768 147.69L49.6846 152.218L44.5366 141.053L32.2727 142.601L30.0812 130.514L17.8146 128.983L18.7185 116.736L7.21961 112.222L11.1621 100.583L1.15432 93.3707L7.88634 83.0714L0 73.6136L9.0986 65.2997L3.828 54.1923L14.7221 48.3871L12.3972 36.3258L24.4039 33.3944L25.1717 21.139L37.5339 21.2648L41.3471 9.58341L53.289 12.7596L59.9066 2.38674L70.6794 8.41407Z" fill="url(#paint1_linear_901_2)"/>
<path d="M150.674 83.7565L158.652 74.375L149.634 65.9742L155.014 54.9176L144.177 49.008L146.619 36.9694L134.642 33.923L133.992 21.6596L121.629 21.6676L117.93 9.95011L105.957 13.0113L99.4407 2.5755L88.6099 8.49846L79.6851 0L70.6781 8.41284L59.9066 2.3855L53.289 12.7584L41.3471 9.58219L37.5339 21.2636L25.1717 21.1364L24.4039 33.3932L12.3986 36.3245L14.7234 48.3859L3.828 54.1911L9.0986 65.2985L0 73.6124L7.88634 83.0688L1.15432 93.3694L11.1608 100.581L7.21961 112.221L18.7171 116.734L17.8133 128.981L30.0799 130.511L32.2714 142.597L44.5353 141.05L49.6833 152.215L61.1754 147.686L68.9567 157.228L78.9537 150.004L88.8807 157.323L96.7549 147.856L108.203 152.495L113.46 141.379L125.709 143.044L128.017 130.98L140.299 129.567L139.515 117.312L151.055 112.908L147.227 101.232L157.304 94.1173L150.674 83.7565ZM148.192 92.3486L139.293 98.6315L142.673 108.944L132.481 112.831L133.173 123.656L122.327 124.904L120.287 135.559L109.47 134.089L104.827 143.905L94.717 139.809L87.7627 148.169L78.9955 141.704L70.1662 148.086L63.2928 139.657L53.1436 143.657L48.5963 133.797L37.7655 135.163L35.83 124.489L24.9965 123.137L25.7953 112.32L15.6393 108.335L19.1212 98.0535L10.2839 91.685L16.2293 82.5885L9.26427 74.2359L17.3001 66.8947L12.6451 57.0837L22.2663 51.9568L20.2136 41.3056L30.8167 38.7167L31.4942 27.8916L42.4112 28.004L45.7785 17.6873L56.3264 20.4929L62.1708 11.3322L71.6842 16.6558L79.6393 9.22629L87.5216 16.7307L97.0849 11.4994L102.84 20.7163L113.415 18.0124L116.682 28.3612L127.6 28.3545L128.172 39.1863L138.75 41.8756L136.593 52.508L146.165 57.7259L141.414 67.49L149.379 74.9102L142.333 83.1932L148.192 92.3486Z" fill="#80D0C7"/>
<path opacity="0.6" d="M150.674 83.7565L158.652 74.375L149.634 65.9742L155.014 54.9176L144.177 49.008L146.619 36.9694L134.642 33.923L133.992 21.6596L121.629 21.6676L117.93 9.95011L105.957 13.0113L99.4407 2.5755L88.6099 8.49846L79.6851 0L70.6781 8.41284L59.9066 2.3855L53.289 12.7584L41.3471 9.58219L37.5339 21.2636L25.1717 21.1364L24.4039 33.3932L12.3986 36.3245L14.7234 48.3859L3.828 54.1911L9.0986 65.2985L0 73.6124L7.88634 83.0688L1.15432 93.3694L11.1608 100.581L7.21961 112.221L18.7171 116.734L17.8133 128.981L30.0799 130.511L32.2714 142.597L44.5353 141.05L49.6833 152.215L61.1754 147.686L68.9567 157.228L78.9537 150.004L88.8807 157.323L96.7549 147.856L108.203 152.495L113.46 141.379L125.709 143.044L128.017 130.98L140.299 129.567L139.515 117.312L151.055 112.908L147.227 101.232L157.304 94.1173L150.674 83.7565ZM148.192 92.3486L139.293 98.6315L142.673 108.944L132.481 112.831L133.173 123.656L122.327 124.904L120.287 135.559L109.47 134.089L104.827 143.905L94.717 139.809L87.7627 148.169L78.9955 141.704L70.1662 148.086L63.2928 139.657L53.1436 143.657L48.5963 133.797L37.7655 135.163L35.83 124.489L24.9965 123.137L25.7953 112.32L15.6393 108.335L19.1212 98.0535L10.2839 91.685L16.2293 82.5885L9.26427 74.2359L17.3001 66.8947L12.6451 57.0837L22.2663 51.9568L20.2136 41.3056L30.8167 38.7167L31.4942 27.8916L42.4112 28.004L45.7785 17.6873L56.3264 20.4929L62.1708 11.3322L71.6842 16.6558L79.6393 9.22629L87.5216 16.7307L97.0849 11.4994L102.84 20.7163L113.415 18.0124L116.682 28.3612L127.6 28.3545L128.172 39.1863L138.75 41.8756L136.593 52.508L146.165 57.7259L141.414 67.49L149.379 74.9102L142.333 83.1932L148.192 92.3486Z" fill="white"/>
<path opacity="0.4" d="M42.4786 63.2857C42.4786 63.2857 54.5248 61.7731 60.4405 63.2857C66.3562 64.7983 91.4383 96.006 91.4383 96.006C91.4383 96.006 153.5 38 191 26C191 26 128.519 58.894 99.2598 114.114C99.2598 114.114 89.4098 117.287 82.4573 111.622C80.4429 109.98 57.8334 81.8787 53.4858 80.8233C50.0474 79.9896 39 80.4022 39 80.4022L42.4786 63.2857Z" fill="url(#paint2_linear_901_2)"/>
<path d="M39.1804 65.9341C39.1804 65.9341 50.1941 64.5575 55.6028 65.9341C61.0114 67.3108 83.9436 95.7134 83.9436 95.7134C83.9436 95.7134 128 38 180.5 30C180.5 30 117.846 61.9372 91.0947 112.194C91.0947 112.194 82.0889 115.082 75.7324 109.926C73.8907 108.432 53.2191 82.8559 49.2441 81.8953C46.1004 81.1366 36 81.5121 36 81.5121L39.1804 65.9341Z" fill="white"/>
<defs>
<linearGradient id="paint0_linear_901_2" x1="70.071" y1="228.479" x2="227.775" y2="70.2108" gradientUnits="userSpaceOnUse">
<stop stop-color="#13547A"/>
<stop offset="1" stop-color="#80D0C7"/>
</linearGradient>
<linearGradient id="paint1_linear_901_2" x1="68.7241" y1="225.807" x2="226.431" y2="67.5388" gradientUnits="userSpaceOnUse">
<stop stop-color="#13547A"/>
<stop offset="1" stop-color="#80D0C7"/>
</linearGradient>
<linearGradient id="paint2_linear_901_2" x1="104.842" y1="153.739" x2="182.829" y2="21.1923" gradientUnits="userSpaceOnUse">
<stop stop-color="#13547A"/>
<stop offset="1" stop-color="#80D0C7"/>
</linearGradient>
</defs>
</svg>
